<?xml version="1.0" encoding="utf-8"?>
<!-- Generator: Adobe Illustrator 24.0.2, SVG Export Plug-In . SVG Version: 6.00 Build 0)  -->
<svg version="1.1" id="Layer_1" xmlns="http://www.w3.org/2000/svg" xmlns:xlink="http://www.w3.org/1999/xlink" x="0px" y="0px"
	 viewBox="0 0 4963.7 2489.1" style="enable-background:new 0 0 4963.7 2489.1;" xml:space="preserve">
<style type="text/css">
	.st0{fill:#93B40D;}
	.st1{display:none;fill:none;}
	.st2{display:none;fill:none;stroke:#FFFFFF;stroke-miterlimit:10;}
	.st3{fill:#999999;}
	.st4{fill:#656565;}
	.st5{opacity:0.15;enable-background:new    ;}
	.st6{fill:#E5E5E5;}
	.st7{opacity:0.2;enable-background:new    ;}
	.st8{opacity:0.5;enable-background:new    ;}
	.st9{fill:#3399CC;}
	.st10{opacity:0.4;fill:#3399CC;enable-background:new    ;}
	.st11{opacity:0.1;enable-background:new    ;}
	.st12{opacity:0.2;fill:#FFFFFF;enable-background:new    ;}
</style>
<g id="surface">
	<polygon id="top" class="st0" points="4963.7,1250.2 2474.1,2477.7 6.3,1248.8 2485,7.1 	"/>
</g>
<g id="Layer_1_1_">
	<line class="st1" x1="2525" y1="9.4" x2="2514" y2="2480"/>
	<line class="st1" x1="5003.7" y1="1252.5" x2="46.3" y2="1251.1"/>
	<line class="st2" x1="3759.4" y1="1872.2" x2="1275.2" y2="629.1"/>
	<line class="st2" x1="3671.9" y1="1918.2" x2="1187.8" y2="675"/>
	<line class="st2" x1="3568.8" y1="1953.7" x2="1084.6" y2="710.5"/>
	<line class="st2" x1="3481.3" y1="1999.6" x2="997.2" y2="756.5"/>
	<line class="st2" x1="3400.7" y1="2038.5" x2="916.6" y2="795.4"/>
	<line class="st2" x1="3313.3" y1="2084.4" x2="829.1" y2="841.3"/>
	<line class="st2" x1="3210.1" y1="2119.9" x2="726" y2="876.8"/>
	<line class="st2" x1="3122.6" y1="2165.9" x2="638.5" y2="922.8"/>
	<g>
		<polygon class="st3" points="1966,1475.2 1673.9,1621.6 1683,1626.2 1975.1,1479.8 		"/>
		<polygon class="st3" points="2054.2,1519.4 1762.1,1665.8 1771.3,1670.4 2063.4,1524 		"/>
		<polygon class="st4" points="1975.1,1479.8 1683,1626.2 1762.1,1665.8 2054.4,1519.4 		"/>
		<polygon class="st3" points="1966,1475.2 1673.9,1621.6 1683,1626.2 1975.1,1479.8 		"/>
		<polygon class="st3" points="2054.2,1519.4 1762.1,1665.8 1771.3,1670.4 2063.4,1524 		"/>
		<polygon class="st4" points="1975.1,1479.8 1683,1626.2 1762.1,1665.8 2054.4,1519.4 		"/>
		<polygon class="st5" points="2052.6,1518.7 1760.6,1665.1 1762.1,1665.8 2054.2,1519.4 		"/>
		<polygon class="st5" points="1975.1,1479.8 1683,1626.2 1684.7,1626.9 1976.7,1480.5 		"/>
		<g>
			<polygon class="st6" points="1808.5,1603.8 1820.7,1597.7 1819,1596.7 1806.9,1602.8 			"/>
			<polygon class="st6" points="1746,1633.3 1733.8,1639.4 1735.7,1640.4 1747.8,1634.3 			"/>
			<polygon class="st6" points="1794.7,1608.9 1782.5,1615.1 1784.2,1616 1796.4,1609.9 			"/>
			<polygon class="st6" points="1770.3,1621.2 1758.2,1627.3 1759.8,1628.2 1772,1622.1 			"/>
		</g>
	</g>
	<g>
		<polygon class="st6" points="1938.6,1537.2 1926.6,1543.2 1928.3,1544.1 1940.2,1538.1 		"/>
		<polygon class="st6" points="2000.1,1508.1 2012.1,1502.1 2010.3,1501.2 1998.3,1507.2 		"/>
		<polygon class="st6" points="1952.2,1532.1 1964.2,1526.1 1962.5,1525.2 1950.6,1531.2 		"/>
		<polygon class="st6" points="1976.2,1520.1 1988.2,1514.1 1986.5,1513.2 1974.5,1519.2 		"/>
	</g>
	<g>
		<polygon class="st6" points="1842.8,1585.1 1830.8,1591.1 1832.4,1592 1844.4,1586 		"/>
		<polygon class="st6" points="1904.3,1556 1916.3,1550 1914.5,1549.1 1902.5,1555.1 		"/>
		<polygon class="st6" points="1856.4,1580 1868.4,1574 1866.7,1573.1 1854.8,1579.1 		"/>
		<polygon class="st6" points="1880.3,1568 1892.3,1562 1890.7,1561.1 1878.7,1567.1 		"/>
	</g>
	<g>
		<polygon class="st3" points="1674.9,1620.4 1382.8,1766.8 1391.9,1771.4 1684,1625 		"/>
		<polygon class="st3" points="1763.1,1664.7 1471,1811.1 1480.1,1815.7 1772.3,1669.3 		"/>
		<polygon class="st4" points="1684,1625 1391.9,1771.4 1471,1811.1 1763.3,1664.7 		"/>
		<polygon class="st3" points="1674.9,1620.4 1382.8,1766.8 1391.9,1771.4 1684,1625 		"/>
		<polygon class="st3" points="1763.1,1664.7 1471,1811.1 1480.1,1815.7 1772.3,1669.3 		"/>
		<polygon class="st4" points="1684,1625 1391.9,1771.4 1471,1811.1 1763.3,1664.7 		"/>
		<polygon class="st5" points="1761.4,1663.9 1469.5,1810.3 1471,1811.1 1763.1,1664.7 		"/>
		<polygon class="st5" points="1684,1625 1391.9,1771.4 1393.6,1772.2 1685.5,1625.8 		"/>
		<g>
			<polygon class="st6" points="1517.4,1749 1529.6,1742.9 1527.9,1742 1515.7,1748.1 			"/>
			<polygon class="st6" points="1454.9,1778.6 1442.7,1784.7 1444.5,1785.6 1456.7,1779.5 			"/>
			<polygon class="st6" points="1503.6,1754.2 1491.4,1760.3 1493.1,1761.2 1505.2,1755.1 			"/>
			<polygon class="st6" points="1479.2,1766.4 1467.1,1772.5 1468.7,1773.4 1480.9,1767.3 			"/>
		</g>
	</g>
	<g>
		<polygon class="st6" points="1647.4,1682.1 1635.4,1688.1 1637.1,1689 1649,1683 		"/>
		<polygon class="st6" points="1708.9,1653.1 1720.9,1647.1 1719.1,1646.2 1707.1,1652.2 		"/>
		<polygon class="st6" points="1661,1677 1673,1671 1671.3,1670.1 1659.4,1676.1 		"/>
		<polygon class="st6" points="1685,1665.1 1696.9,1659.1 1695.3,1658.2 1683.3,1664.2 		"/>
	</g>
	<g>
		<polygon class="st6" points="1551.6,1730 1539.6,1736 1541.2,1736.9 1553.2,1730.9 		"/>
		<polygon class="st6" points="1613.1,1701 1625.1,1695 1623.3,1694.1 1611.3,1700.1 		"/>
		<polygon class="st6" points="1565.2,1724.9 1577.2,1718.9 1575.5,1718.1 1563.6,1724 		"/>
		<polygon class="st6" points="1589.2,1713 1601.1,1707 1599.5,1706.1 1587.5,1712.1 		"/>
	</g>
	<g>
		<polygon class="st3" points="1504.3,1706.4 1212.2,1852.8 1221.4,1857.4 1513.5,1711 		"/>
		<polygon class="st3" points="1592.6,1750.7 1300.5,1897.1 1309.6,1901.7 1601.7,1755.2 		"/>
		<polygon class="st4" points="1513.5,1711 1221.4,1857.4 1300.5,1897.1 1592.7,1750.7 		"/>
		<polygon class="st3" points="1504.3,1706.4 1212.2,1852.8 1221.4,1857.4 1513.5,1711 		"/>
		<polygon class="st3" points="1592.6,1750.7 1300.5,1897.1 1309.6,1901.7 1601.7,1755.2 		"/>
		<polygon class="st4" points="1513.5,1711 1221.4,1857.4 1300.5,1897.1 1592.7,1750.7 		"/>
		<polygon class="st5" points="1590.9,1749.9 1298.9,1896.3 1300.5,1897.1 1592.6,1750.7 		"/>
		<polygon class="st5" points="1513.5,1711 1221.4,1857.4 1223,1858.2 1515,1711.8 		"/>
		<g>
			<polygon class="st6" points="1346.9,1835 1359,1828.9 1357.4,1828 1345.2,1834.1 			"/>
			<polygon class="st6" points="1284.3,1864.6 1272.2,1870.7 1274,1871.6 1286.2,1865.5 			"/>
			<polygon class="st6" points="1333,1840.2 1320.9,1846.3 1322.5,1847.2 1334.7,1841.1 			"/>
			<polygon class="st6" points="1308.7,1852.4 1296.5,1858.5 1298.2,1859.4 1310.4,1853.3 			"/>
		</g>
	</g>
	<g>
		<polygon class="st6" points="1476.9,1768.1 1464.9,1774.1 1466.5,1775 1478.5,1769 		"/>
		<polygon class="st6" points="1538.4,1739.1 1550.4,1733.1 1548.6,1732.2 1536.6,1738.2 		"/>
		<polygon class="st6" points="1490.5,1763 1502.5,1757 1500.8,1756.1 1488.8,1762.1 		"/>
		<polygon class="st6" points="1514.4,1751 1526.4,1745.1 1524.8,1744.2 1512.8,1750.1 		"/>
	</g>
	<g>
		<polygon class="st6" points="1381,1817.6 1369.1,1823.6 1370.7,1824.5 1382.7,1818.5 		"/>
		<polygon class="st6" points="1442.6,1788.6 1454.6,1782.6 1452.8,1781.7 1440.8,1787.7 		"/>
		<polygon class="st6" points="1394.7,1812.5 1406.6,1806.5 1405,1805.6 1393,1811.6 		"/>
		<polygon class="st6" points="1418.6,1800.5 1430.6,1794.5 1428.9,1793.6 1417,1799.6 		"/>
	</g>
	<g>
		<polygon class="st6" points="3540,735.7 3528,741.7 3529.6,742.5 3541.6,736.6 		"/>
		<polygon class="st6" points="3601.5,706.6 3613.5,700.6 3611.7,699.7 3599.7,705.7 		"/>
		<polygon class="st6" points="3553.6,730.6 3565.6,724.6 3563.9,723.7 3552,729.7 		"/>
		<polygon class="st6" points="3577.6,718.6 3589.5,712.6 3587.9,711.7 3575.9,717.7 		"/>
	</g>
	<g>
		<g>
			<polygon class="st3" points="3273.3,821.5 2981.2,967.9 2990.3,972.5 3282.4,826.1 			"/>
			<polygon class="st3" points="3361.6,865.7 3069.5,1012.1 3078.6,1016.7 3370.7,870.3 			"/>
			<polygon class="st4" points="3282.4,826.1 2990.3,972.5 3069.5,1012.1 3361.7,865.7 			"/>
			<polygon class="st3" points="3273.3,821.5 2981.2,967.9 2990.3,972.5 3282.4,826.1 			"/>
			<polygon class="st3" points="3361.6,865.7 3069.5,1012.1 3078.6,1016.7 3370.7,870.3 			"/>
			<polygon class="st4" points="3282.4,826.1 2990.3,972.5 3069.5,1012.1 3361.7,865.7 			"/>
			<polygon class="st5" points="3359.9,865 3067.9,1011.4 3069.5,1012.1 3361.6,865.7 			"/>
			<polygon class="st5" points="3282.4,826.1 2990.3,972.5 2992,973.2 3284,826.8 			"/>
			<g>
				<polygon class="st6" points="3115.9,950 3128,944 3126.4,943 3114.2,949.1 				"/>
				<polygon class="st6" points="3053.3,979.6 3041.2,985.7 3043,986.7 3055.2,980.5 				"/>
				<polygon class="st6" points="3102,955.2 3089.8,961.3 3091.5,962.3 3103.7,956.2 				"/>
				<polygon class="st6" points="3077.7,967.4 3065.5,973.5 3067.2,974.5 3079.4,968.3 				"/>
			</g>
		</g>
		<g>
			<polygon class="st6" points="3245.9,883.5 3233.9,889.4 3235.6,890.3 3247.6,884.3 			"/>
			<polygon class="st6" points="3307.4,854.4 3319.4,848.4 3317.6,847.5 3305.6,853.5 			"/>
			<polygon class="st6" points="3259.5,878.4 3271.5,872.4 3269.9,871.5 3257.9,877.5 			"/>
			<polygon class="st6" points="3283.5,866.4 3295.5,860.4 3293.8,859.5 3281.9,865.5 			"/>
		</g>
		<g>
			<polygon class="st6" points="3150.1,931.4 3138.1,937.3 3139.8,938.3 3151.8,932.3 			"/>
			<polygon class="st6" points="3211.6,902.3 3223.6,896.3 3221.8,895.4 3209.8,901.4 			"/>
			<polygon class="st6" points="3163.7,926.3 3175.7,920.3 3174.1,919.4 3162.1,925.4 			"/>
			<polygon class="st6" points="3187.7,914.3 3199.7,908.3 3198,907.4 3186,913.4 			"/>
		</g>
		<g>
			<polygon class="st3" points="2982.2,966.7 2690.1,1113.1 2699.2,1117.7 2991.3,971.3 			"/>
			<polygon class="st3" points="3070.4,1011 2778.3,1157.4 2787.5,1161.9 3079.6,1015.5 			"/>
			<polygon class="st4" points="2991.3,971.3 2699.2,1117.7 2778.3,1157.4 3070.6,1011 			"/>
			<polygon class="st3" points="2982.2,966.7 2690.1,1113.1 2699.2,1117.7 2991.3,971.3 			"/>
			<polygon class="st3" points="3070.4,1011 2778.3,1157.4 2787.5,1161.9 3079.6,1015.5 			"/>
			<polygon class="st4" points="2991.3,971.3 2699.2,1117.7 2778.3,1157.4 3070.6,1011 			"/>
			<polygon class="st5" points="3068.8,1010.2 2776.8,1156.6 2778.3,1157.4 3070.4,1011 			"/>
			<polygon class="st5" points="2991.3,971.3 2699.2,1117.7 2700.9,1118.5 2992.9,972.1 			"/>
			<g>
				<polygon class="st6" points="2824.7,1095.3 2836.9,1089.2 2835.2,1088.3 2823.1,1094.4 				"/>
				<polygon class="st6" points="2762.2,1124.9 2750,1131 2751.9,1131.9 2764,1125.8 				"/>
				<polygon class="st6" points="2810.9,1100.5 2798.7,1106.6 2800.4,1107.5 2812.6,1101.4 				"/>
				<polygon class="st6" points="2786.6,1112.7 2774.4,1118.8 2776.1,1119.7 2788.2,1113.6 				"/>
			</g>
		</g>
		<g>
			<polygon class="st6" points="2954.7,1028.4 2942.7,1034.4 2944.4,1035.3 2956.4,1029.3 			"/>
			<polygon class="st6" points="3016.3,999.4 3028.2,993.4 3026.4,992.5 3014.5,998.5 			"/>
			<polygon class="st6" points="2968.4,1023.3 2980.3,1017.3 2978.7,1016.4 2966.7,1022.4 			"/>
			<polygon class="st6" points="2992.3,1011.3 3004.3,1005.3 3002.6,1004.5 2990.6,1010.4 			"/>
		</g>
		<g>
			<polygon class="st6" points="2858.9,1076.3 2846.9,1082.3 2848.6,1083.2 2860.6,1077.2 			"/>
			<polygon class="st6" points="2920.4,1047.3 2932.4,1041.3 2930.6,1040.4 2918.6,1046.4 			"/>
			<polygon class="st6" points="2872.5,1071.2 2884.5,1065.2 2882.9,1064.3 2870.9,1070.3 			"/>
			<polygon class="st6" points="2896.5,1059.3 2908.5,1053.3 2906.8,1052.4 2894.8,1058.3 			"/>
		</g>
		<g>
			<polygon class="st3" points="3564.7,675.5 3272.6,821.9 3281.7,826.5 3573.8,680.1 			"/>
			<polygon class="st3" points="3652.9,719.8 3360.8,866.2 3369.9,870.8 3662,724.3 			"/>
			<polygon class="st4" points="3573.8,680.1 3281.7,826.5 3360.8,866.2 3653.1,719.8 			"/>
			<polygon class="st3" points="3564.7,675.5 3272.6,821.9 3281.7,826.5 3573.8,680.1 			"/>
			<polygon class="st3" points="3652.9,719.8 3360.8,866.2 3369.9,870.8 3662,724.3 			"/>
			<polygon class="st4" points="3573.8,680.1 3281.7,826.5 3360.8,866.2 3653.1,719.8 			"/>
			<polygon class="st5" points="3651.2,719 3359.3,865.4 3360.8,866.2 3652.9,719.8 			"/>
			<polygon class="st5" points="3573.8,680.1 3281.7,826.5 3283.4,827.3 3575.3,680.9 			"/>
			<g>
				<polygon class="st6" points="3407.2,804.1 3419.4,798 3417.7,797.1 3405.5,803.2 				"/>
				<polygon class="st6" points="3344.7,833.7 3332.5,839.8 3334.3,840.7 3346.5,834.6 				"/>
				<polygon class="st6" points="3393.4,809.3 3381.2,815.4 3382.9,816.3 3395,810.2 				"/>
				<polygon class="st6" points="3369,821.5 3356.9,827.6 3358.5,828.5 3370.7,822.4 				"/>
			</g>
		</g>
		<g>
			<polygon class="st6" points="3441.4,785.4 3429.5,791.4 3431.1,792.3 3443.1,786.3 			"/>
			<polygon class="st6" points="3503,756.4 3515,750.4 3513.2,749.5 3501.2,755.5 			"/>
			<polygon class="st6" points="3455.1,780.3 3467.1,774.3 3465.4,773.4 3453.4,779.4 			"/>
			<polygon class="st6" points="3479,768.3 3491,762.4 3489.4,761.5 3477.4,767.5 			"/>
		</g>
		<g>
			<g>
				<polygon class="st3" points="3681.2,616.9 3389.1,763.3 3398.2,767.9 3690.4,621.5 				"/>
				<polygon class="st3" points="3769.5,661.2 3477.4,807.6 3486.5,812.2 3778.6,665.8 				"/>
				<polygon class="st4" points="3690.4,621.5 3398.2,767.9 3477.4,807.6 3769.6,661.2 				"/>
				<polygon class="st3" points="3681.2,616.9 3389.1,763.3 3398.2,767.9 3690.4,621.5 				"/>
				<polygon class="st3" points="3769.5,661.2 3477.4,807.6 3486.5,812.2 3778.6,665.8 				"/>
				<polygon class="st4" points="3690.4,621.5 3398.2,767.9 3477.4,807.6 3769.6,661.2 				"/>
				<polygon class="st5" points="3767.8,660.4 3475.8,806.8 3477.4,807.6 3769.5,661.2 				"/>
				<polygon class="st5" points="3690.4,621.5 3398.2,767.9 3399.9,768.7 3691.9,622.3 				"/>
				<g>
					<polygon class="st6" points="3523.8,745.5 3535.9,739.4 3534.3,738.5 3522.1,744.6 					"/>
					<polygon class="st6" points="3461.2,775.1 3449.1,781.2 3450.9,782.1 3463.1,776 					"/>
					<polygon class="st6" points="3509.9,750.7 3497.7,756.8 3499.4,757.7 3511.6,751.6 					"/>
					<polygon class="st6" points="3485.6,762.9 3473.4,769 3475.1,769.9 3487.2,763.8 					"/>
				</g>
			</g>
			<g>
				<polygon class="st6" points="3653.7,678.6 3641.8,684.6 3643.4,685.5 3655.4,679.5 				"/>
				<polygon class="st6" points="3715.3,649.6 3727.3,643.6 3725.5,642.7 3713.5,648.7 				"/>
				<polygon class="st6" points="3667.4,673.5 3679.3,667.5 3677.7,666.6 3665.7,672.6 				"/>
				<polygon class="st6" points="3691.3,661.5 3703.3,655.6 3701.6,654.7 3689.7,660.7 				"/>
			</g>
			<g>
				<polygon class="st6" points="3557.9,728.1 3545.9,734.1 3547.6,735 3559.6,729 				"/>
				<polygon class="st6" points="3619.5,699 3631.4,693.1 3629.6,692.2 3617.7,698.2 				"/>
				<polygon class="st6" points="3571.6,723 3583.5,717 3581.9,716.1 3569.9,722.1 				"/>
				<polygon class="st6" points="3595.5,711 3607.5,705 3605.8,704.1 3593.9,710.1 				"/>
			</g>
		</g>
	</g>
	<g>
		<g>
			<g>
				<polygon class="st3" points="2786.4,1331.2 3077.8,1476.9 3068.7,1481.5 2777.4,1335.8 				"/>
				<polygon class="st3" points="2698.4,1375.2 2989.8,1520.9 2980.7,1525.5 2689.3,1379.8 				"/>
				<polygon class="st4" points="2777.4,1335.8 3068.7,1481.5 2989.8,1520.9 2698.3,1375.2 				"/>
				<polygon class="st3" points="2786.4,1331.2 3077.8,1476.9 3068.7,1481.5 2777.4,1335.8 				"/>
				<polygon class="st3" points="2698.4,1375.2 2989.8,1520.9 2980.7,1525.5 2689.3,1379.8 				"/>
				<polygon class="st4" points="2777.4,1335.8 3068.7,1481.5 2989.8,1520.9 2698.3,1375.2 				"/>
				<polygon class="st5" points="2700.1,1374.5 2991.3,1520.2 2989.8,1520.9 2698.4,1375.2 				"/>
				<polygon class="st5" points="2777.4,1335.8 3068.7,1481.5 3067,1482.2 2775.8,1336.5 				"/>
				<g>
					<polygon class="st6" points="2943.5,1459.2 2931.4,1453.1 2933,1452.2 2945.2,1458.2 					"/>
					<polygon class="st6" points="3005.9,1488.6 3018,1494.7 3016.2,1495.6 3004.1,1489.5 					"/>
					<polygon class="st6" points="2957.3,1464.3 2969.5,1470.4 2967.8,1471.3 2955.6,1465.2 					"/>
					<polygon class="st6" points="2981.6,1476.4 2993.7,1482.5 2992.1,1483.4 2979.9,1477.4 					"/>
				</g>
			</g>
			<g>
				<polygon class="st6" points="2811.5,1391.5 2823.6,1397.6 2822,1398.5 2809.8,1392.4 				"/>
				<polygon class="st6" points="2749.1,1362 2737,1356 2738.8,1355.1 2750.9,1361.1 				"/>
				<polygon class="st6" points="2797.7,1386.3 2785.5,1380.3 2787.2,1379.3 2799.4,1385.4 				"/>
				<polygon class="st6" points="2773.4,1374.2 2761.3,1368.1 2762.9,1367.2 2775.1,1373.3 				"/>
			</g>
			<g>
				<polygon class="st6" points="2908.6,1440 2920.8,1446.1 2919.1,1447 2906.9,1440.9 				"/>
				<polygon class="st6" points="2846.2,1410.6 2834.1,1404.5 2835.9,1403.6 2848.1,1409.7 				"/>
				<polygon class="st6" points="2894.8,1434.9 2882.7,1428.8 2884.3,1427.9 2896.5,1434 				"/>
				<polygon class="st6" points="2870.5,1422.7 2858.4,1416.7 2860.1,1415.8 2872.2,1421.8 				"/>
			</g>
		</g>
		<g>
			<g>
				<polygon class="st3" points="3077.1,1476.4 3368.4,1622.1 3359.3,1626.7 3067.9,1481 				"/>
				<polygon class="st3" points="2989,1520.5 3280.4,1666.1 3271.3,1670.7 2979.9,1525 				"/>
				<polygon class="st4" points="3067.9,1481 3359.3,1626.7 3280.4,1666.1 2988.9,1520.5 				"/>
				<polygon class="st3" points="3077.1,1476.4 3368.4,1622.1 3359.3,1626.7 3067.9,1481 				"/>
				<polygon class="st3" points="2989,1520.5 3280.4,1666.1 3271.3,1670.7 2979.9,1525 				"/>
				<polygon class="st4" points="3067.9,1481 3359.3,1626.7 3280.4,1666.1 2988.9,1520.5 				"/>
				<polygon class="st5" points="2990.7,1519.7 3281.9,1665.4 3280.4,1666.1 2989,1520.5 				"/>
				<polygon class="st5" points="3067.9,1481 3359.3,1626.7 3357.6,1627.4 3066.4,1481.8 				"/>
				<g>
					<polygon class="st6" points="3234.1,1604.4 3222,1598.3 3223.6,1597.4 3235.8,1603.5 					"/>
					<polygon class="st6" points="3296.5,1633.8 3308.6,1639.9 3306.8,1640.8 3294.7,1634.7 					"/>
					<polygon class="st6" points="3247.9,1609.5 3260.1,1615.6 3258.4,1616.5 3246.3,1610.4 					"/>
					<polygon class="st6" points="3272.2,1621.7 3284.3,1627.8 3282.7,1628.7 3270.5,1622.6 					"/>
				</g>
			</g>
			<g>
				<polygon class="st6" points="3102.1,1536.7 3114.2,1542.8 3112.6,1543.7 3100.4,1537.6 				"/>
				<polygon class="st6" points="3039.7,1507.3 3027.6,1501.2 3029.4,1500.3 3041.5,1506.3 				"/>
				<polygon class="st6" points="3088.3,1531.5 3076.1,1525.5 3077.8,1524.6 3089.9,1530.6 				"/>
				<polygon class="st6" points="3064,1519.4 3051.9,1513.3 3053.5,1512.4 3065.7,1518.5 				"/>
			</g>
			<g>
				<polygon class="st6" points="3199.2,1585.3 3211.4,1591.3 3209.7,1592.2 3197.5,1586.2 				"/>
				<polygon class="st6" points="3136.8,1555.8 3124.7,1549.8 3126.5,1548.8 3138.7,1554.9 				"/>
				<polygon class="st6" points="3185.4,1580.1 3173.3,1574 3174.9,1573.1 3187.1,1579.2 				"/>
				<polygon class="st6" points="3161.1,1568 3149,1561.9 3150.6,1561 3162.8,1567.1 				"/>
			</g>
		</g>
		<g>
			<g>
				<polygon class="st3" points="3366.8,1621.2 3658.2,1766.9 3649.1,1771.4 3357.7,1625.8 				"/>
				<polygon class="st3" points="3278.8,1665.2 3570.2,1810.9 3561.1,1815.5 3269.7,1669.8 				"/>
				<polygon class="st4" points="3357.7,1625.8 3649.1,1771.4 3570.2,1810.9 3278.7,1665.2 				"/>
				<polygon class="st3" points="3366.8,1621.2 3658.2,1766.9 3649.1,1771.4 3357.7,1625.8 				"/>
				<polygon class="st3" points="3278.8,1665.2 3570.2,1810.9 3561.1,1815.5 3269.7,1669.8 				"/>
				<polygon class="st4" points="3357.7,1625.8 3649.1,1771.4 3570.2,1810.9 3278.7,1665.2 				"/>
				<polygon class="st5" points="3280.5,1664.5 3571.7,1810.2 3570.2,1810.9 3278.8,1665.2 				"/>
				<polygon class="st5" points="3357.7,1625.8 3649.1,1771.4 3647.4,1772.2 3356.2,1626.5 				"/>
				<g>
					<polygon class="st6" points="3523.9,1749.1 3511.8,1743.1 3513.4,1742.2 3525.6,1748.2 					"/>
					<polygon class="st6" points="3586.3,1778.6 3598.4,1784.7 3596.6,1785.6 3584.4,1779.5 					"/>
					<polygon class="st6" points="3537.7,1754.3 3549.8,1760.4 3548.2,1761.3 3536,1755.2 					"/>
					<polygon class="st6" points="3562,1766.4 3574.1,1772.5 3572.4,1773.4 3560.3,1767.3 					"/>
				</g>
			</g>
			<g>
				<polygon class="st6" points="3391.9,1681.5 3404,1687.5 3402.3,1688.4 3390.2,1682.4 				"/>
				<polygon class="st6" points="3329.5,1652 3317.4,1646 3319.2,1645.1 3331.3,1651.1 				"/>
				<polygon class="st6" points="3378.1,1676.3 3365.9,1670.2 3367.6,1669.3 3379.7,1675.4 				"/>
				<polygon class="st6" points="3353.8,1664.2 3341.6,1658.1 3343.3,1657.2 3355.4,1663.3 				"/>
			</g>
			<g>
				<polygon class="st6" points="3489,1730 3501.1,1736.1 3499.5,1737 3487.3,1730.9 				"/>
				<polygon class="st6" points="3426.6,1700.6 3414.5,1694.5 3416.3,1693.6 3428.4,1699.7 				"/>
				<polygon class="st6" points="3475.2,1724.9 3463,1718.8 3464.7,1717.9 3476.9,1723.9 				"/>
				<polygon class="st6" points="3450.9,1712.7 3438.8,1706.7 3440.4,1705.7 3452.6,1711.8 				"/>
			</g>
		</g>
		<g>
			<g>
				<polygon class="st3" points="3488.9,1682 3780.3,1827.7 3771.2,1832.3 3479.8,1686.6 				"/>
				<polygon class="st3" points="3400.9,1726.1 3692.3,1871.7 3683.2,1876.3 3391.8,1730.6 				"/>
				<polygon class="st4" points="3479.8,1686.6 3771.2,1832.3 3692.3,1871.7 3400.8,1726.1 				"/>
				<polygon class="st3" points="3488.9,1682 3780.3,1827.7 3771.2,1832.3 3479.8,1686.6 				"/>
				<polygon class="st3" points="3400.9,1726.1 3692.3,1871.7 3683.2,1876.3 3391.8,1730.6 				"/>
				<polygon class="st4" points="3479.8,1686.6 3771.2,1832.3 3692.3,1871.7 3400.8,1726.1 				"/>
				<polygon class="st5" points="3402.6,1725.3 3693.8,1871 3692.3,1871.7 3400.9,1726.1 				"/>
				<polygon class="st5" points="3479.8,1686.6 3771.2,1832.3 3769.5,1833 3478.3,1687.4 				"/>
				<g>
					<polygon class="st6" points="3646,1810 3633.9,1803.9 3635.5,1803 3647.7,1809.1 					"/>
					<polygon class="st6" points="3708.4,1839.4 3720.5,1845.5 3718.7,1846.4 3706.6,1840.3 					"/>
					<polygon class="st6" points="3659.8,1815.1 3671.9,1821.2 3670.3,1822.1 3658.1,1816 					"/>
					<polygon class="st6" points="3684.1,1827.3 3696.2,1833.3 3694.6,1834.3 3682.4,1828.2 					"/>
				</g>
			</g>
			<g>
				<polygon class="st6" points="3514,1742.3 3526.1,1748.4 3524.4,1749.3 3512.3,1743.2 				"/>
				<polygon class="st6" points="3451.6,1712.8 3439.5,1706.8 3441.3,1705.9 3453.4,1711.9 				"/>
				<polygon class="st6" points="3500.2,1737.1 3488,1731.1 3489.7,1730.2 3501.8,1736.2 				"/>
				<polygon class="st6" points="3475.9,1725 3463.8,1718.9 3465.4,1718 3477.6,1724.1 				"/>
			</g>
			<g>
				<polygon class="st6" points="3611.1,1790.8 3623.2,1796.9 3621.6,1797.8 3609.4,1791.8 				"/>
				<polygon class="st6" points="3548.7,1761.4 3536.6,1755.3 3538.4,1754.4 3550.6,1760.5 				"/>
				<polygon class="st6" points="3597.3,1785.7 3585.1,1779.6 3586.8,1778.7 3599,1784.8 				"/>
				<polygon class="st6" points="3573,1773.6 3560.9,1767.5 3562.5,1766.6 3574.7,1772.6 				"/>
			</g>
		</g>
	</g>
	<g>
		<g>
			<polygon class="st3" points="1356.3,616.3 1647.7,762 1638.6,766.5 1347.2,620.8 			"/>
			<polygon class="st3" points="1268.3,660.3 1559.7,806 1550.6,810.5 1259.2,664.8 			"/>
			<polygon class="st4" points="1347.2,620.8 1638.6,766.5 1559.7,806 1268.2,660.3 			"/>
			<polygon class="st3" points="1356.3,616.3 1647.7,762 1638.6,766.5 1347.2,620.8 			"/>
			<polygon class="st3" points="1268.3,660.3 1559.7,806 1550.6,810.5 1259.2,664.8 			"/>
			<polygon class="st4" points="1347.2,620.8 1638.6,766.5 1559.7,806 1268.2,660.3 			"/>
			<polygon class="st5" points="1270,659.5 1561.2,805.2 1559.7,806 1268.3,660.3 			"/>
			<polygon class="st5" points="1347.2,620.8 1638.6,766.5 1636.9,767.3 1345.7,621.6 			"/>
			<g>
				<polygon class="st6" points="1513.4,744.2 1501.2,738.1 1502.9,737.2 1515,743.3 				"/>
				<polygon class="st6" points="1575.7,773.7 1587.9,779.7 1586.1,780.6 1573.9,774.6 				"/>
				<polygon class="st6" points="1527.2,749.4 1539.3,755.4 1537.7,756.3 1525.5,750.3 				"/>
				<polygon class="st6" points="1551.5,761.5 1563.6,767.6 1561.9,768.5 1549.8,762.4 				"/>
			</g>
		</g>
		<g>
			<polygon class="st6" points="1381.3,676.5 1393.5,682.6 1391.8,683.5 1379.7,677.4 			"/>
			<polygon class="st6" points="1319,647.1 1306.8,641 1308.7,640.1 1320.8,646.2 			"/>
			<polygon class="st6" points="1367.5,671.4 1355.4,665.3 1357.1,664.4 1369.2,670.5 			"/>
			<polygon class="st6" points="1343.3,659.2 1331.1,653.2 1332.8,652.3 1344.9,658.3 			"/>
		</g>
		<g>
			<polygon class="st6" points="1478.5,725.1 1490.6,731.2 1488.9,732.1 1476.8,726 			"/>
			<polygon class="st6" points="1416.1,695.7 1404,689.6 1405.8,688.7 1417.9,694.7 			"/>
			<polygon class="st6" points="1464.7,719.9 1452.5,713.9 1454.2,713 1466.3,719 			"/>
			<polygon class="st6" points="1440.4,707.8 1428.2,701.7 1429.9,700.8 1442.1,706.9 			"/>
		</g>
	</g>
	<g>
		<g>
			<polygon class="st3" points="1312.3,594.3 1603.7,740 1594.6,744.5 1303.2,598.8 			"/>
			<polygon class="st3" points="1224.3,638.3 1515.7,784 1506.5,788.5 1215.2,642.8 			"/>
			<polygon class="st4" points="1303.2,598.8 1594.6,744.5 1515.7,784 1224.1,638.3 			"/>
			<polygon class="st3" points="1312.3,594.3 1603.7,740 1594.6,744.5 1303.2,598.8 			"/>
			<polygon class="st3" points="1224.3,638.3 1515.7,784 1506.5,788.5 1215.2,642.8 			"/>
			<polygon class="st4" points="1303.2,598.8 1594.6,744.5 1515.7,784 1224.1,638.3 			"/>
			<polygon class="st5" points="1226,637.5 1517.2,783.2 1515.7,784 1224.3,638.3 			"/>
			<polygon class="st5" points="1303.2,598.8 1594.6,744.5 1592.9,745.3 1301.7,599.6 			"/>
			<g>
				<polygon class="st6" points="1469.4,722.2 1457.2,716.1 1458.9,715.2 1471,721.3 				"/>
				<polygon class="st6" points="1531.7,751.7 1543.9,757.7 1542.1,758.6 1529.9,752.6 				"/>
				<polygon class="st6" points="1483.2,727.4 1495.3,733.4 1493.7,734.3 1481.5,728.3 				"/>
				<polygon class="st6" points="1507.5,739.5 1519.6,745.6 1517.9,746.5 1505.8,740.4 				"/>
			</g>
		</g>
		<g>
			<polygon class="st6" points="1337.3,654.5 1349.5,660.6 1347.8,661.5 1335.7,655.4 			"/>
			<polygon class="st6" points="1275,625.1 1262.8,619 1264.7,618.1 1276.8,624.2 			"/>
			<polygon class="st6" points="1323.5,649.4 1311.4,643.3 1313.1,642.4 1325.2,648.5 			"/>
			<polygon class="st6" points="1299.3,637.2 1287.1,631.2 1288.8,630.3 1300.9,636.3 			"/>
		</g>
		<g>
			<polygon class="st6" points="1434.5,703.1 1446.6,709.2 1444.9,710.1 1432.8,704 			"/>
			<polygon class="st6" points="1372.1,673.7 1360,667.6 1361.8,666.7 1373.9,672.7 			"/>
			<polygon class="st6" points="1420.7,697.9 1408.5,691.9 1410.2,691 1422.3,697 			"/>
			<polygon class="st6" points="1396.4,685.8 1384.2,679.7 1385.9,678.8 1398.1,684.9 			"/>
		</g>
	</g>
	<g>
		<g>
			<polygon class="st3" points="1646.9,761.5 1938.3,907.2 1929.2,911.7 1637.8,766.1 			"/>
			<polygon class="st3" points="1558.9,805.5 1850.3,951.2 1841.2,955.8 1549.8,810.1 			"/>
			<polygon class="st4" points="1637.8,766.1 1929.2,911.7 1850.3,951.2 1558.8,805.5 			"/>
			<polygon class="st3" points="1646.9,761.5 1938.3,907.2 1929.2,911.7 1637.8,766.1 			"/>
			<polygon class="st3" points="1558.9,805.5 1850.3,951.2 1841.2,955.8 1549.8,810.1 			"/>
			<polygon class="st4" points="1637.8,766.1 1929.2,911.7 1850.3,951.2 1558.8,805.5 			"/>
			<polygon class="st5" points="1560.6,804.8 1851.8,950.4 1850.3,951.2 1558.9,805.5 			"/>
			<polygon class="st5" points="1637.8,766.1 1929.2,911.7 1927.5,912.5 1636.3,766.8 			"/>
			<g>
				<polygon class="st6" points="1804,889.4 1791.8,883.4 1793.5,882.5 1805.6,888.5 				"/>
				<polygon class="st6" points="1866.3,918.9 1878.5,924.9 1876.7,925.8 1864.5,919.8 				"/>
				<polygon class="st6" points="1817.8,894.6 1829.9,900.7 1828.3,901.6 1816.1,895.5 				"/>
				<polygon class="st6" points="1842.1,906.7 1854.2,912.8 1852.5,913.7 1840.4,907.6 				"/>
			</g>
		</g>
		<g>
			<polygon class="st6" points="1671.9,821.8 1684.1,827.8 1682.4,828.7 1670.3,822.7 			"/>
			<polygon class="st6" points="1609.6,792.3 1597.4,786.2 1599.3,785.3 1611.4,791.4 			"/>
			<polygon class="st6" points="1658.1,816.6 1646,810.5 1647.7,809.6 1659.8,815.7 			"/>
			<polygon class="st6" points="1633.9,804.5 1621.7,798.4 1623.4,797.5 1635.5,803.5 			"/>
		</g>
		<g>
			<polygon class="st6" points="1769.1,870.3 1781.2,876.4 1779.5,877.3 1767.4,871.2 			"/>
			<polygon class="st6" points="1706.7,840.9 1694.6,834.8 1696.4,833.9 1708.5,840 			"/>
			<polygon class="st6" points="1755.3,865.2 1743.1,859.1 1744.8,858.2 1756.9,864.2 			"/>
			<polygon class="st6" points="1731,853 1718.8,846.9 1720.5,846 1732.7,852.1 			"/>
		</g>
	</g>
	<g>
		<g>
			<polygon class="st3" points="1936.7,906.3 2228,1051.9 2218.9,1056.5 1927.6,910.8 			"/>
			<polygon class="st3" points="1848.7,950.3 2140,1096 2130.9,1100.5 1839.6,954.8 			"/>
			<polygon class="st4" points="1927.6,910.8 2218.9,1056.5 2140,1096 1848.5,950.3 			"/>
			<polygon class="st3" points="1936.7,906.3 2228,1051.9 2218.9,1056.5 1927.6,910.8 			"/>
			<polygon class="st3" points="1848.7,950.3 2140,1096 2130.9,1100.5 1839.6,954.8 			"/>
			<polygon class="st4" points="1927.6,910.8 2218.9,1056.5 2140,1096 1848.5,950.3 			"/>
			<polygon class="st5" points="1850.3,949.5 2141.6,1095.2 2140,1096 1848.7,950.3 			"/>
			<polygon class="st5" points="1927.6,910.8 2218.9,1056.5 2217.3,1057.3 1926.1,911.6 			"/>
			<g>
				<polygon class="st6" points="2093.8,1034.2 2081.6,1028.1 2083.3,1027.2 2095.4,1033.3 				"/>
				<polygon class="st6" points="2156.1,1063.6 2168.3,1069.7 2166.4,1070.6 2154.3,1064.6 				"/>
				<polygon class="st6" points="2107.6,1039.4 2119.7,1045.4 2118,1046.3 2105.9,1040.3 				"/>
				<polygon class="st6" points="2131.8,1051.5 2144,1057.6 2142.3,1058.5 2130.2,1052.4 				"/>
			</g>
		</g>
		<g>
			<polygon class="st6" points="1961.7,966.5 1973.9,972.6 1972.2,973.5 1960.1,967.4 			"/>
			<polygon class="st6" points="1899.4,937.1 1887.2,931 1889,930.1 1901.2,936.2 			"/>
			<polygon class="st6" points="1947.9,961.4 1935.8,955.3 1937.4,954.4 1949.6,960.5 			"/>
			<polygon class="st6" points="1923.6,949.2 1911.5,943.2 1913.2,942.2 1925.3,948.3 			"/>
		</g>
		<g>
			<polygon class="st6" points="2058.9,1015.1 2071,1021.2 2069.3,1022.1 2057.2,1016 			"/>
			<polygon class="st6" points="1996.5,985.6 1984.3,979.6 1986.2,978.7 1998.3,984.7 			"/>
			<polygon class="st6" points="2045,1009.9 2032.9,1003.8 2034.6,1002.9 2046.7,1009 			"/>
			<polygon class="st6" points="2020.8,997.8 2008.6,991.7 2010.3,990.8 2022.4,996.9 			"/>
		</g>
	</g>
	<g>
		<g>
			<polygon class="st3" points="2060.2,967.7 2351.6,1113.3 2342.5,1117.9 2051.1,972.2 			"/>
			<polygon class="st3" points="1972.2,1011.7 2263.6,1157.4 2254.5,1161.9 1963.1,1016.2 			"/>
			<polygon class="st4" points="2051.1,972.2 2342.5,1117.9 2263.6,1157.4 1972.1,1011.7 			"/>
			<polygon class="st3" points="2060.2,967.7 2351.6,1113.3 2342.5,1117.9 2051.1,972.2 			"/>
			<polygon class="st3" points="1972.2,1011.7 2263.6,1157.4 2254.5,1161.9 1963.1,1016.2 			"/>
			<polygon class="st4" points="2051.1,972.2 2342.5,1117.9 2263.6,1157.4 1972.1,1011.7 			"/>
			<polygon class="st5" points="1973.9,1010.9 2265.1,1156.6 2263.6,1157.4 1972.2,1011.7 			"/>
			<polygon class="st5" points="2051.1,972.2 2342.5,1117.9 2340.8,1118.7 2049.6,973 			"/>
			<g>
				<polygon class="st6" points="2217.3,1095.6 2205.1,1089.5 2206.8,1088.6 2219,1094.7 				"/>
				<polygon class="st6" points="2279.7,1125 2291.8,1131.1 2290,1132 2277.8,1125.9 				"/>
				<polygon class="st6" points="2231.1,1100.8 2243.2,1106.8 2241.6,1107.7 2229.4,1101.7 				"/>
				<polygon class="st6" points="2255.4,1112.9 2267.5,1119 2265.9,1119.9 2253.7,1113.8 				"/>
			</g>
		</g>
		<g>
			<polygon class="st6" points="2085.3,1027.9 2097.4,1034 2095.7,1034.9 2083.6,1028.8 			"/>
			<polygon class="st6" points="2022.9,998.5 2010.8,992.4 2012.6,991.5 2024.7,997.6 			"/>
			<polygon class="st6" points="2071.5,1022.8 2059.3,1016.7 2061,1015.8 2073.1,1021.8 			"/>
			<polygon class="st6" points="2047.2,1010.6 2035,1004.5 2036.7,1003.6 2048.9,1009.7 			"/>
		</g>
		<g>
			<polygon class="st6" points="2182.4,1076.5 2194.5,1082.6 2192.9,1083.5 2180.7,1077.4 			"/>
			<polygon class="st6" points="2120,1047 2107.9,1041 2109.7,1040.1 2121.8,1046.1 			"/>
			<polygon class="st6" points="2168.6,1071.3 2156.4,1065.3 2158.1,1064.3 2170.3,1070.4 			"/>
			<polygon class="st6" points="2144.3,1059.2 2132.2,1053.1 2133.8,1052.2 2146,1058.3 			"/>
		</g>
	</g>
</g>
<g id="road">
	<g>
		<g>
			<path class="st3" d="M2605.6,1333.1c-0.8,0.2-1.5,0.3-2.1,0.5c-1.2,0.3-2.3,0.6-3.5,0.8c-24.3,5.5-51.3,8.7-79.6,8.7
				s-55.4-3-79.6-8.7c-1.2-0.3-2.3-0.6-3.5-0.8c-0.8-0.2-1.5-0.3-2.1-0.5c-1.8-0.5-3.8-0.9-5.6-1.4l-88,44l9.1,4.6l80.9-40.5
				c27,6.5,57.2,10.2,89,10.2c31.9,0,62-3.6,89-10.2l80.6,40.5l9.1-4.6l-88-44C2609.4,1332.1,2607.4,1332.6,2605.6,1333.1z"/>
			<path class="st3" d="M2726.5,1246.7c0-15.9-7.3-31.1-20.2-44.4l80.9-40.5l-9.1-4.6l-88,44c1.1,0.9,2,1.8,2.9,2.7
				c0.3,0.3,0.6,0.8,1.1,1.1c0.6,0.6,1.2,1.2,1.7,1.8c11.1,12.1,17.3,25.6,17.3,39.9s-6.2,27.8-17.3,39.9c-0.6,0.6-1.1,1.2-1.7,1.8
				c-0.3,0.3-0.6,0.8-1.1,1.1c-0.9,0.9-1.8,1.8-2.9,2.7l88,44l9.1-4.6l-80.9-40.5C2719.2,1277.8,2726.5,1262.7,2726.5,1246.7z"/>
			<path class="st3" d="M2609.2,1153.8c-27-6.5-57.2-10.2-89-10.2s-62,3.6-89,10.2l-80.2-40.5l-9.1,4.6l77.4,39l0,0l10,5
				c1.8-0.5,3.6-0.9,5.6-1.4c0.8-0.2,1.4-0.3,2.1-0.5c1.2-0.3,2.4-0.6,3.6-0.9c24.3-5.5,51.3-8.7,79.6-8.7s55.4,3,79.6,8.7
				c1.2,0.3,2.4,0.6,3.6,0.9c0.8,0.2,1.4,0.3,2.1,0.5c1.8,0.5,3.8,0.9,5.6,1.4l10-5l0,0l78-39l-9.1-4.6L2609.2,1153.8z"/>
			<path class="st3" d="M2344.9,1286.6c-11.1-12.1-17.3-25.6-17.3-39.9s6.2-27.8,17.3-39.9c0.6-0.6,1.1-1.2,1.7-1.8
				c0.3-0.3,0.6-0.8,1.1-1.1c0.9-0.9,1.8-1.8,2.9-2.7l-87.5-44l-9.1,4.6l80.2,40.5c-12.9,13.3-20.2,28.5-20.2,44.4
				s7.3,31.1,20.2,44.4l-80.9,40.5l9.1,4.6l88-44c-1.1-0.9-2-1.8-2.9-2.7c-0.3-0.3-0.6-0.8-1.1-1.1
				C2345.9,1287.8,2345.3,1287.2,2344.9,1286.6z"/>
		</g>
		<path class="st3" d="M2520.2,1205.8c-45.2,0-81.9,18.3-81.9,41s36.7,41,81.9,41s81.9-18.3,81.9-41S2565.4,1205.8,2520.2,1205.8z
			 M2520.2,1280.9c-37.8,0-68.3-15.3-68.3-34.1s30.5-34.1,68.3-34.1s68.3,15.3,68.3,34.1S2558,1280.9,2520.2,1280.9z"/>
		<path class="st3" d="M2520.2,1205.8c-45.2,0-81.9,18.3-81.9,41s36.7,41,81.9,41s81.9-18.3,81.9-41S2565.4,1205.8,2520.2,1205.8z
			 M2520.2,1280.9c-37.8,0-68.3-15.3-68.3-34.1s30.5-34.1,68.3-34.1s68.3,15.3,68.3,34.1S2558,1280.9,2520.2,1280.9z"/>
		<g>
			<path class="st3" d="M2605.6,1333.1c-0.8,0.2-1.5,0.3-2.1,0.5c-1.2,0.3-2.3,0.6-3.5,0.8c-24.3,5.5-51.3,8.7-79.6,8.7
				s-55.4-3-79.6-8.7c-1.2-0.3-2.3-0.6-3.5-0.8c-0.8-0.2-1.5-0.3-2.1-0.5c-1.8-0.5-3.8-0.9-5.6-1.4l-88,44l9.1,4.6l80.9-40.5
				c27,6.5,57.2,10.2,89,10.2c31.9,0,62-3.6,89-10.2l80.6,40.5l9.1-4.6l-88-44C2609.4,1332.1,2607.4,1332.6,2605.6,1333.1z"/>
			<path class="st3" d="M2726.5,1246.7c0-15.9-7.3-31.1-20.2-44.4l80.9-40.5l-9.1-4.6l-88,44c1.1,0.9,2,1.8,2.9,2.7
				c0.3,0.3,0.6,0.8,1.1,1.1c0.6,0.6,1.2,1.2,1.7,1.8c11.1,12.1,17.3,25.6,17.3,39.9s-6.2,27.8-17.3,39.9c-0.6,0.6-1.1,1.2-1.7,1.8
				c-0.3,0.3-0.6,0.8-1.1,1.1c-0.9,0.9-1.8,1.8-2.9,2.7l88,44l9.1-4.6l-80.9-40.5C2719.2,1277.8,2726.5,1262.7,2726.5,1246.7z"/>
			<path class="st3" d="M2609.2,1153.8c-27-6.5-57.2-10.2-89-10.2s-62,3.6-89,10.2l-80.2-40.5l-9.1,4.6l77.4,39l0,0l10,5
				c1.8-0.5,3.6-0.9,5.6-1.4c0.8-0.2,1.4-0.3,2.1-0.5c1.2-0.3,2.4-0.6,3.6-0.9c24.3-5.5,51.3-8.7,79.6-8.7s55.4,3,79.6,8.7
				c1.2,0.3,2.4,0.6,3.6,0.9c0.8,0.2,1.4,0.3,2.1,0.5c1.8,0.5,3.8,0.9,5.6,1.4l10-5l0,0l78-39l-9.1-4.6L2609.2,1153.8z"/>
			<path class="st3" d="M2344.9,1286.6c-11.1-12.1-17.3-25.6-17.3-39.9s6.2-27.8,17.3-39.9c0.6-0.6,1.1-1.2,1.7-1.8
				c0.3-0.3,0.6-0.8,1.1-1.1c0.9-0.9,1.8-1.8,2.9-2.7l-87.5-44l-9.1,4.6l80.2,40.5c-12.9,13.3-20.2,28.5-20.2,44.4
				s7.3,31.1,20.2,44.4l-80.9,40.5l9.1,4.6l88-44c-1.1-0.9-2-1.8-2.9-2.7c-0.3-0.3-0.6-0.8-1.1-1.1
				C2345.9,1287.8,2345.3,1287.2,2344.9,1286.6z"/>
		</g>
		<path class="st4" d="M2712.9,1246.7c0-16.4-8.2-32-22.8-45.5l88.1-44l-79-39.4l-88,44c-27.1-7.3-58.1-11.4-91-11.4
			c-32.9,0-63.9,4.1-91,11.4l-87.4-44l-78.9,39.4l87.4,44c-14.6,13.5-22.8,29-22.8,45.5c0,16.4,8.2,32,22.8,45.5l-88,44l78.9,39.4
			l88.1-44c27.1,7.3,58.1,11.4,90.9,11.4s63.9-4.1,90.9-11.4l88.1,44l78.9-39.4l-88-44C2704.7,1278.8,2712.9,1263.1,2712.9,1246.7z
			 M2438.3,1246.7c0-22.6,36.7-41,81.9-41s81.9,18.3,81.9,41s-36.7,41-81.9,41S2438.3,1269.3,2438.3,1246.7z"/>
		<path class="st4" d="M2712.9,1246.7c0-16.4-8.2-32-22.8-45.5l88.1-44l-79-39.4l-88,44c-27.1-7.3-58.1-11.4-91-11.4
			c-32.9,0-63.9,4.1-91,11.4l-87.4-44l-78.9,39.4l87.4,44c-14.6,13.5-22.8,29-22.8,45.5c0,16.4,8.2,32,22.8,45.5l-88,44l78.9,39.4
			l88.1-44c27.1,7.3,58.1,11.4,90.9,11.4s63.9-4.1,90.9-11.4l88.1,44l78.9-39.4l-88-44C2704.7,1278.8,2712.9,1263.1,2712.9,1246.7z
			 M2438.3,1246.7c0-22.6,36.7-41,81.9-41s81.9,18.3,81.9,41s-36.7,41-81.9,41S2438.3,1269.3,2438.3,1246.7z"/>
		<g>
			<polygon class="st6" points="2325.1,1343.4 2313,1349.4 2314.8,1350.3 2326.9,1344.3 			"/>
			<polygon class="st6" points="2373.7,1319.1 2361.5,1325.2 2363.2,1326.1 2375.3,1320 			"/>
			<polygon class="st6" points="2349.4,1331.2 2337.3,1337.3 2338.9,1338.2 2351.1,1332.1 			"/>
		</g>
		<g>
			<polygon class="st6" points="2727.3,1144.1 2739.4,1138 2737.7,1137.1 2725.6,1143.1 			"/>
			<polygon class="st6" points="2713.5,1149.2 2701.3,1155.3 2703,1156.2 2715.1,1150.1 			"/>
			<polygon class="st6" points="2689.2,1161.3 2677.1,1167.4 2678.7,1168.3 2690.9,1162.3 			"/>
		</g>
		<g>
			<polygon class="st6" points="2313.8,1144.1 2301.6,1138 2303.3,1137.1 2315.4,1143.1 			"/>
			<polygon class="st6" points="2327.6,1149.2 2339.7,1155.3 2338,1156.2 2325.9,1150.1 			"/>
			<polygon class="st6" points="2351.8,1161.3 2364,1167.4 2362.3,1168.3 2350.2,1162.3 			"/>
		</g>
		<g>
			<polygon class="st6" points="2715.3,1343.4 2727.4,1349.4 2725.6,1350.3 2713.5,1344.3 			"/>
			<polygon class="st6" points="2666.7,1319.1 2678.9,1325.2 2677.2,1326.1 2665.1,1320 			"/>
			<polygon class="st6" points="2691,1331.2 2703.1,1337.3 2701.5,1338.2 2689.3,1332.1 			"/>
		</g>
		<path class="st5" d="M2520.2,1204.7c-46.6,0-84.2,18.8-84.2,42.2s37.6,42.2,84.2,42.2s84.2-18.8,84.2-42.2
			S2566.8,1204.7,2520.2,1204.7z M2520.2,1287.7c-45.2,0-81.9-18.3-81.9-41s36.7-41,81.9-41s81.9,18.3,81.9,41
			S2565.4,1287.7,2520.2,1287.7z"/>
		<path class="st6" d="M2520.2,1316.2h-0.6v-1.5h0.6c4.9,0,9.7-0.2,14.6-0.5l0.1,1.5C2530.1,1316.1,2525.1,1316.2,2520.2,1316.2z
			 M2504.4,1315.8c-5-0.3-10.2-0.8-15.2-1.4l0.1-1.5c5,0.6,10,1.1,15,1.2V1315.8z M2550.1,1314.6l-0.1-1.5c5-0.6,10.2-1.2,15-2.1
			l0.3,1.5C2560.3,1313.2,2555.1,1313.9,2550.1,1314.6z M2474.2,1312.3c-5-0.9-10-2-14.9-3.2l0.3-1.5c4.9,1.2,9.7,2.3,14.9,3.2
			L2474.2,1312.3z M2580,1309.4l-0.3-1.5c5-1.2,9.9-2.6,14.6-4.1l0.5,1.5C2590,1306.7,2585,1308.2,2580,1309.4z M2444.7,1304.8
			c-5-1.7-9.7-3.5-14.3-5.3l0.6-1.4c4.4,2,9.3,3.6,14.1,5.3L2444.7,1304.8z M2608.9,1300l-0.6-1.4c4.9-2,9.4-4.3,13.5-6.5l0.8,1.4
			C2618.5,1295.6,2613.8,1297.9,2608.9,1300z M2416.8,1292.7c-4.7-2.6-8.9-5.5-12.7-8.5l0.9-1.2c3.8,2.9,7.9,5.8,12.6,8.3
			L2416.8,1292.7z M2635.5,1285l-0.9-1.2c4.3-3.2,7.9-6.7,11.1-10.2l1.2,1.1C2643.5,1278.1,2639.7,1281.6,2635.5,1285z
			 M2392.9,1273.7c-3.5-4.3-6.2-8.7-8-13.1l1.4-0.6c1.8,4.3,4.4,8.7,7.7,12.6L2392.9,1273.7z M2655.1,1261.8l-1.4-0.6
			c2.1-4.7,3-9.6,3-14.4h1.5C2658.2,1251.8,2657.2,1256.9,2655.1,1261.8z M2383.7,1245.7h-1.5c0.1-5,1.4-10,3.6-14.9l1.4,0.6
			C2385,1236.1,2383.8,1240.8,2383.7,1245.7z M2654.4,1234.3c-1.7-4.4-4.1-8.7-7.4-12.7l1.2-0.9c3.5,4.3,6.1,8.7,7.7,13.2
			L2654.4,1234.3z M2395.5,1219.1l-1.1-1.1c3.2-3.5,7-7,11.4-10.2l0.9,1.2C2402.5,1212.3,2398.7,1215.6,2395.5,1219.1z
			 M2636.2,1211.1c-3.6-3-7.9-5.8-12.4-8.5l0.8-1.4c4.7,2.7,8.9,5.6,12.6,8.7L2636.2,1211.1z M2419.5,1200.9l-0.8-1.4
			c4.3-2.3,8.9-4.6,13.8-6.5l0.6,1.4C2428.3,1196.5,2423.6,1198.7,2419.5,1200.9z M2610.3,1195.8c-4.4-2-9.3-3.8-14.1-5.5l0.5-1.4
			c5,1.7,9.7,3.5,14.3,5.5L2610.3,1195.8z M2447.2,1189.4l-0.5-1.5c4.7-1.5,9.7-2.9,14.7-4.1l0.3,1.5
			C2456.8,1186.5,2451.9,1187.9,2447.2,1189.4z M2581.8,1186.2c-4.9-1.2-9.7-2.3-14.7-3.2l0.3-1.5c5,0.9,10,2,14.9,3.2
			L2581.8,1186.2z M2476.7,1182.4l-0.3-1.5c5-0.8,10-1.5,15-2.1l0.1,1.5C2486.5,1180.9,2481.5,1181.5,2476.7,1182.4z M2552.1,1180.8
			c-5-0.6-10-1.1-15-1.4l0.1-1.5c5,0.3,10.2,0.8,15.2,1.4L2552.1,1180.8z M2506.7,1179.2v-1.5c4.4-0.2,9.1-0.3,13.6-0.3h1.7v1.5
			h-1.7C2515.6,1178.9,2511.1,1178.9,2506.7,1179.2z"/>
		<g>
			<path class="st5" d="M2329.8,1246.7c0-16.1,8-31.3,22.1-44.6l1.4-0.9l-88.7-44.8l-1.7,0.8l87.4,44l0,0
				c-14.6,13.5-22.8,29-22.8,45.5c0,16.4,8.2,32,22.8,45.5l-88,44l1.7,0.8l89.4-44.8l-1.4-0.9
				C2337.9,1278.1,2329.8,1262.8,2329.8,1246.7z"/>
			<path class="st5" d="M2699.2,1117.8l-88,44c-27.1-7.3-58.1-11.4-91-11.4c-32.9,0-63.9,4.1-91,11.4l-87.4-44l-1.5,0.8l88.9,44.8
				l1.7-0.6c26.7-7.1,57-11.1,89.4-11.1s62.6,3.9,89.4,11.1l1.7,0.6l89.5-44.8L2699.2,1117.8z"/>
			<path class="st5" d="M2712.9,1246.7c0-16.4-8.2-32-22.8-45.5l0,0l0,0l88-44l-1.7-0.8l-89.4,44.8l1.4,0.9
				c14.1,13.3,22.1,28.5,22.1,44.6s-8,31.4-22.1,44.6l-1.4,0.9l89.4,44.8l1.7-0.8l-88-44C2704.7,1278.8,2712.9,1263.1,2712.9,1246.7
				z"/>
			<path class="st5" d="M2611.2,1330.2l-1.8,0.6c-26.6,7.1-57,11.1-89.2,11.1s-62.6-3.9-89.2-11.1l-1.8-0.6l-89.5,44.8l1.5,0.8
				l88-44l0,0l0,0c27.1,7.3,58.1,11.4,90.9,11.4c32.8,0,63.9-4.1,90.9-11.4l88.1,44l1.5-0.8L2611.2,1330.2z"/>
		</g>
	</g>
	<g>
		<polygon class="st3" points="2257.3,1329.3 1965.2,1475.7 1974.4,1480.2 2266.5,1333.8 		"/>
		<polygon class="st3" points="2345.6,1373.5 2053.5,1519.9 2062.6,1524.5 2354.7,1378.1 		"/>
		<polygon class="st4" points="2266.5,1333.8 1974.4,1480.2 2053.5,1519.9 2345.7,1373.5 		"/>
		<polygon class="st3" points="2257.3,1329.3 1965.2,1475.7 1974.4,1480.2 2266.5,1333.8 		"/>
		<polygon class="st3" points="2345.6,1373.5 2053.5,1519.9 2062.6,1524.5 2354.7,1378.1 		"/>
		<polygon class="st4" points="2266.5,1333.8 1974.4,1480.2 2053.5,1519.9 2345.7,1373.5 		"/>
		<polygon class="st5" points="2343.9,1372.7 2052,1519.1 2053.5,1519.9 2345.6,1373.5 		"/>
		<polygon class="st5" points="2266.5,1333.8 1974.4,1480.2 1976,1481 2268,1334.6 		"/>
		<g>
			<polygon class="st6" points="2099.9,1457.8 2112.1,1451.7 2110.4,1450.8 2098.2,1456.9 			"/>
			<polygon class="st6" points="2037.3,1487.4 2025.2,1493.5 2027,1494.4 2039.2,1488.3 			"/>
			<polygon class="st6" points="2086,1463 2073.9,1469.1 2075.5,1470 2087.7,1463.9 			"/>
			<polygon class="st6" points="2061.7,1475.2 2049.5,1481.3 2051.2,1482.2 2063.4,1476.1 			"/>
		</g>
	</g>
	<g>
		<polygon class="st6" points="2229.9,1391.2 2218,1397.2 2219.6,1398.1 2231.6,1392.1 		"/>
		<polygon class="st6" points="2291.5,1362.2 2303.4,1356.2 2301.6,1355.3 2289.7,1361.3 		"/>
		<polygon class="st6" points="2243.6,1386.1 2255.5,1380.1 2253.9,1379.2 2241.9,1385.2 		"/>
		<polygon class="st6" points="2267.5,1374.2 2279.5,1368.2 2277.9,1367.3 2265.9,1373.3 		"/>
	</g>
	<g>
		<polygon class="st6" points="2134.1,1439.1 2122.1,1445.1 2123.8,1446 2135.8,1440 		"/>
		<polygon class="st6" points="2195.6,1410.1 2207.6,1404.1 2205.8,1403.2 2193.9,1409.2 		"/>
		<polygon class="st6" points="2147.7,1434 2159.7,1428 2158.1,1427.2 2146.1,1433.1 		"/>
		<polygon class="st6" points="2171.7,1422.1 2183.7,1416.1 2182,1415.2 2170.1,1421.2 		"/>
	</g>
</g>
<g id="Layer_3">
	<g>
		<g>
			<path class="st6" d="M2520.1,1190.9c-40.5,0-73.6,16.6-73.6,36.8v18.4c0,20.2,33.1,36.8,73.6,36.8s73.6-16.6,73.6-36.8v-18.4
				C2593.7,1207.5,2560.6,1190.9,2520.1,1190.9z"/>
			<path class="st7" d="M2520.1,1264.5c-40.5,0-73.6-16.6-73.6-36.8v18.4c0,20.2,33.1,36.8,73.6,36.8s73.6-16.6,73.6-36.8v-18.4
				C2593.7,1248,2560.6,1264.5,2520.1,1264.5z"/>
			<ellipse class="st8" cx="2520.1" cy="1227.7" rx="64.4" ry="27.6"/>
			<path class="st9" d="M2520.1,1209.3c-31.7,0-58.4,10.1-63.5,23c5.1,12.9,31.7,23,63.5,23s58.4-10.1,63.5-23
				C2578.5,1219.4,2551.9,1209.3,2520.1,1209.3z"/>
			<g>
				<path class="st6" d="M2520.1,1204.7c-7.8,0-13.8,3.2-13.8,6.9v27.6c0,3.7,6,6.9,13.8,6.9s13.8-3.2,13.8-6.9v-27.6
					C2533.9,1207.9,2527.9,1204.7,2520.1,1204.7z"/>
				<path class="st7" d="M2520.1,1218.5c-7.8,0-13.8-3.2-13.8-6.9v27.6c0,3.7,6,6.9,13.8,6.9s13.8-3.2,13.8-6.9v-27.6
					C2533.9,1215.3,2527.9,1218.5,2520.1,1218.5z"/>
				<path class="st10" d="M2520.1,1239.2c-7.8,0-13.8-3.2-13.8-6.9v7.8c0,3.7,6,6.9,13.8,6.9s13.8-3.2,13.8-6.9v-7.8
					C2533.9,1236,2527.9,1239.2,2520.1,1239.2z"/>
			</g>
			<g>
				<path class="st6" d="M2547.7,1196c0,15.2-12.4,27.1-27.6,27.1c-15.2,0-27.6-12-27.6-27.1"/>
				<path class="st7" d="M2547.7,1196c0,15.2-12.4,27.1-27.6,27.1c-15.2,0-27.6-12-27.6-27.1"/>
				<path class="st11" d="M2520.1,1220.8c-8.3,0-16.1-3.2-21.6-7.8c5.1,6.4,12.9,10.1,21.6,10.1s16.6-4.1,21.6-10.1
					C2536.2,1217.6,2528.4,1220.8,2520.1,1220.8z"/>
				<ellipse class="st6" cx="2520.1" cy="1195.5" rx="27.6" ry="13.8"/>
				<ellipse class="st8" cx="2520.1" cy="1195.5" rx="20.7" ry="8.7"/>
				<path class="st9" d="M2520.1,1189.1c-10.6,0-18.9,3.2-20.7,7.4c1.4,4.1,10.1,7.4,20.7,7.4s18.9-3.2,20.7-7.4
					C2539,1192.8,2530.7,1189.1,2520.1,1189.1z"/>
			</g>
			<g>
				<path class="st6" d="M2520.1,1174.8c-5.1,0-9.2,1.8-9.2,4.6v18.4c0,2.8,4.1,4.6,9.2,4.6s9.2-1.8,9.2-4.6v-18.4
					C2529.3,1176.7,2525.2,1174.8,2520.1,1174.8z"/>
				<path class="st7" d="M2520.1,1184c-5.1,0-9.2-1.8-9.2-4.6v18.4c0,2.8,4.1,4.6,9.2,4.6s9.2-1.8,9.2-4.6v-18.4
					C2529.3,1182.2,2525.2,1184,2520.1,1184z"/>
				<path class="st10" d="M2520.1,1199.7c-5.1,0-9.2-1.8-9.2-4.6v3.7c0,2.8,4.1,4.6,9.2,4.6s9.2-1.8,9.2-4.6v-3.7
					C2529.3,1197.8,2525.2,1199.7,2520.1,1199.7z"/>
			</g>
			<g>
				<path class="st6" d="M2543.1,1161.5c0,12.4-10.1,22.5-23,22.5s-23-10.1-23-22.5"/>
				<path class="st7" d="M2543.1,1161.5c0,12.4-10.1,22.5-23,22.5s-23-10.1-23-22.5"/>
				<path class="st11" d="M2520.1,1182.2c-6.9,0-13.3-2.8-17.9-6.4c4.1,5.1,10.6,8.7,17.9,8.7s13.8-3.2,17.9-8.7
					C2533.5,1179.4,2527,1182.2,2520.1,1182.2z"/>
				<ellipse class="st6" cx="2520.1" cy="1161" rx="23" ry="11.5"/>
				<ellipse class="st8" cx="2520.1" cy="1161" rx="17.5" ry="7.4"/>
				<path class="st9" d="M2520.1,1156c-8.7,0-16.1,2.8-17,6c1.4,3.7,8.3,6,17,6s16.1-2.8,17-6
					C2536.2,1158.7,2528.9,1156,2520.1,1156z"/>
			</g>
			<g>
				<path class="st6" d="M2520.1,1141.3c-2.8,0-4.6,0.9-4.6,2.3v20.7c0,1.4,1.8,2.3,4.6,2.3s4.6-0.9,4.6-2.3v-20.7
					C2524.7,1142.2,2522.9,1141.3,2520.1,1141.3z"/>
				<path class="st7" d="M2520.1,1145.8c-2.8,0-4.6-0.9-4.6-2.3v20.7c0,1.4,1.8,2.3,4.6,2.3s4.6-0.9,4.6-2.3v-20.7
					C2524.7,1144.9,2522.9,1145.8,2520.1,1145.8z"/>
				<path class="st10" d="M2520.1,1164.3c-2.8,0-4.6-0.9-4.6-2.3v3.7c0,1.4,1.8,2.3,4.6,2.3s4.6-0.9,4.6-2.3v-3.7
					C2524.7,1162.9,2522.9,1164.3,2520.1,1164.3z"/>
			</g>
			<circle class="st6" cx="2520.1" cy="1144.9" r="9.2"/>
			<ellipse class="st12" cx="2520.1" cy="1139.4" rx="4.6" ry="3.2"/>
			<path class="st11" d="M2520.1,1151.4c-3.7,0-7.4-1.8-9.2-5.1c0.9,4.1,4.6,7.8,9.2,7.8c4.6,0,8.3-3.2,9.2-7.8
				C2527.5,1149.5,2523.8,1151.4,2520.1,1151.4z"/>
		</g>
		<path class="st10" d="M2520.1,1140.3c0,0,0.5-13.8-9.2-13.8s-9.2,36.8-9.2,36.8s1.4-35,9.7-35S2520.1,1140.3,2520.1,1140.3z"/>
		<path class="st10" d="M2520.1,1140.3c0,0,0-9.2-4.6-9.2c-6,0-4.6,35.4-4.6,35.4s0.5-33.1,5.1-33.1
			C2520.1,1133.4,2520.1,1140.3,2520.1,1140.3z"/>
		<path class="st10" d="M2520.1,1140.3c0,0-0.5-13.8,9.2-13.8s9.2,36.8,9.2,36.8s-1.4-35-9.7-35S2520.1,1140.3,2520.1,1140.3z"/>
		<path class="st10" d="M2524.7,1163.3c0,0,4.1-9.2,13.8-9.2c13.8,0,4.6,38.2,4.6,38.2s6-35.9-4.6-35.9
			C2530.2,1156,2524.7,1163.3,2524.7,1163.3z"/>
		<path class="st10" d="M2520.1,1167.9c0,0-0.5-3.2,9.2-3.2c13.8,0,0,37.3,0,37.3s10.6-35,0-35
			C2521.1,1166.6,2520.1,1167.9,2520.1,1167.9z"/>
		<path class="st10" d="M2515.5,1163.3c0,0-4.1-9.2-13.8-9.2c-13.8,0-4.6,38.2-4.6,38.2s-6-35.9,4.6-35.9
			C2510,1156,2515.5,1163.3,2515.5,1163.3z"/>
		<path class="st10" d="M2520.1,1167.9c0,0,0.5-3.2-9.2-3.2c-13.8,0,0,37.3,0,37.3s-10.6-35,0-35
			C2519.2,1166.6,2520.1,1167.9,2520.1,1167.9z"/>
		<path class="st10" d="M2520.1,1139.9c0,0,0-8.7,4.6-8.7c6,0,4.6,35.4,4.6,35.4s-0.5-33.1-5.1-33.1
			C2520.1,1133.4,2520.1,1139.9,2520.1,1139.9z"/>
		<path class="st10" d="M2520.1,1167.9c0,0-0.9-2.3-0.9,3.2s0.9,24.4,0.9,24.4s0.9-17.9,0.9-24.4
			C2521.1,1164.7,2520.1,1167.9,2520.1,1167.9z"/>
		<path class="st10" d="M2538.5,1200.1c0,0-0.5-6.9,9.2-6.9c17,0,4.6,48.3,4.6,48.3s9.2-46-4.6-46
			C2539.4,1195.5,2538.5,1200.1,2538.5,1200.1z"/>
		<path class="st10" d="M2529.3,1203.3c0,0,0-3.2,6.9-3.2c13.3,0,3.2,41.4,3.2,41.4s6.4-39.6-3.2-39.6
			C2530.2,1202,2529.3,1203.3,2529.3,1203.3z"/>
		<path class="st10" d="M2501.7,1200.1c0,0,0.5-6.9-9.2-6.9c-17,0-4.6,48.3-4.6,48.3s-9.2-46,4.6-46
			C2500.8,1195.5,2501.7,1200.1,2501.7,1200.1z"/>
		<path class="st10" d="M2510.9,1203.3c0,0,0-3.2-6.9-3.2c-13.3,0-3.2,41.4-3.2,41.4s-6.4-39.6,3.2-39.6
			C2510,1202,2510.9,1203.3,2510.9,1203.3z"/>
		<path class="st10" d="M2520.1,1203.8c0,0-0.9-4.1-0.9,2.8c0,5.5,0.9,29.9,0.9,29.9s0.9-23.5,0.9-29.9
			C2521.1,1200.1,2520.1,1203.8,2520.1,1203.8z"/>
		<path class="st10" d="M2520.1,1139.9c0,0-0.9-6-0.9-4.6s0.9,26.7,0.9,26.7s0.9-25.3,0.9-26.7S2520.1,1139.9,2520.1,1139.9z"/>
	</g>
</g>
</svg>
