<?xml version="1.0" encoding="utf-8"?>
<!-- Generator: Adobe Illustrator 18.1.0, SVG Export Plug-In . SVG Version: 6.00 Build 0)  -->
<svg version="1.1" id="Layer_1" xmlns="http://www.w3.org/2000/svg" xmlns:xlink="http://www.w3.org/1999/xlink" x="0px" y="0px"
	 viewBox="0 0 32 40" enable-background="new 0 0 32 40" xml:space="preserve">
<g>
	<g>
		<path fill="#E5E5E5" d="M16,20c-8.8,0-16,3.6-16,8v4c0,4.4,7.2,8,16,8s16-3.6,16-8v-4C32,23.6,24.8,20,16,20z"/>
		<path opacity="0.2" d="M16,36c-8.8,0-16-3.6-16-8v4c0,4.4,7.2,8,16,8s16-3.6,16-8v-4C32,32.4,24.8,36,16,36z"/>
		<ellipse opacity="0.5" cx="16" cy="28" rx="14" ry="6"/>
		<path fill="#3399CC" d="M16,24c-6.9,0-12.7,2.2-13.8,5c1.1,2.8,6.9,5,13.8,5s12.7-2.2,13.8-5C28.7,26.2,22.9,24,16,24z"/>
		<g>
			<path fill="#E5E5E5" d="M16,23c-1.7,0-3,0.7-3,1.5v6c0,0.8,1.3,1.5,3,1.5s3-0.7,3-1.5v-6C19,23.7,17.7,23,16,23z"/>
			<path opacity="0.2" d="M16,26c-1.7,0-3-0.7-3-1.5v6c0,0.8,1.3,1.5,3,1.5s3-0.7,3-1.5v-6C19,25.3,17.7,26,16,26z"/>
			<path opacity="0.4" fill="#3399CC" d="M16,30.5c-1.7,0-3-0.7-3-1.5v1.7c0,0.8,1.3,1.5,3,1.5s3-0.7,3-1.5V29
				C19,29.8,17.7,30.5,16,30.5z"/>
		</g>
		<g>
			<path fill="#E5E5E5" d="M22,21.1c0,3.3-2.7,5.9-6,5.9s-6-2.6-6-5.9"/>
			<path opacity="0.2" d="M22,21.1c0,3.3-2.7,5.9-6,5.9s-6-2.6-6-5.9"/>
			<path opacity="0.1" d="M16,26.5c-1.8,0-3.5-0.7-4.7-1.7c1.1,1.4,2.8,2.2,4.7,2.2s3.6-0.9,4.7-2.2C19.5,25.8,17.8,26.5,16,26.5z"
				/>
			<ellipse fill="#E5E5E5" cx="16" cy="21" rx="6" ry="3"/>
			<ellipse opacity="0.5" cx="16" cy="21" rx="4.5" ry="1.9"/>
			<path fill="#3399CC" d="M16,19.6c-2.3,0-4.1,0.7-4.5,1.6c0.3,0.9,2.2,1.6,4.5,1.6s4.1-0.7,4.5-1.6C20.1,20.4,18.3,19.6,16,19.6z"
				/>
		</g>
		<g>
			<path fill="#E5E5E5" d="M16,16.5c-1.1,0-2,0.4-2,1v4c0,0.6,0.9,1,2,1s2-0.4,2-1v-4C18,16.9,17.1,16.5,16,16.5z"/>
			<path opacity="0.2" d="M16,18.5c-1.1,0-2-0.4-2-1v4c0,0.6,0.9,1,2,1s2-0.4,2-1v-4C18,18.1,17.1,18.5,16,18.5z"/>
			<path opacity="0.4" fill="#3399CC" d="M16,21.9c-1.1,0-2-0.4-2-1v0.8c0,0.6,0.9,1,2,1s2-0.4,2-1v-0.8C18,21.5,17.1,21.9,16,21.9z
				"/>
		</g>
		<g>
			<path fill="#E5E5E5" d="M21,13.6c0,2.7-2.2,4.9-5,4.9s-5-2.2-5-4.9"/>
			<path opacity="0.2" d="M21,13.6c0,2.7-2.2,4.9-5,4.9s-5-2.2-5-4.9"/>
			<path opacity="0.1" d="M16,18.1c-1.5,0-2.9-0.6-3.9-1.4c0.9,1.1,2.3,1.9,3.9,1.9s3-0.7,3.9-1.9C18.9,17.5,17.5,18.1,16,18.1z"/>
			<ellipse fill="#E5E5E5" cx="16" cy="13.5" rx="5" ry="2.5"/>
			<ellipse opacity="0.5" cx="16" cy="13.5" rx="3.8" ry="1.6"/>
			<path fill="#3399CC" d="M16,12.4c-1.9,0-3.5,0.6-3.7,1.3c0.3,0.8,1.8,1.3,3.7,1.3s3.5-0.6,3.7-1.3C19.5,13,17.9,12.4,16,12.4z"/>
		</g>
		<g>
			<path fill="#E5E5E5" d="M16,9.2c-0.6,0-1,0.2-1,0.5v4.5c0,0.3,0.4,0.5,1,0.5s1-0.2,1-0.5V9.7C17,9.4,16.6,9.2,16,9.2z"/>
			<path opacity="0.2" d="M16,10.2c-0.6,0-1-0.2-1-0.5v4.5c0,0.3,0.4,0.5,1,0.5s1-0.2,1-0.5V9.7C17,10,16.6,10.2,16,10.2z"/>
			<path opacity="0.4" fill="#3399CC" d="M16,14.2c-0.6,0-1-0.2-1-0.5v0.8c0,0.3,0.4,0.5,1,0.5c0.6,0,1-0.2,1-0.5v-0.8
				C17,13.9,16.6,14.2,16,14.2z"/>
		</g>
		<circle fill="#E5E5E5" cx="16" cy="10" r="2"/>
		<ellipse opacity="0.2" fill="#FFFFFF" cx="16" cy="8.8" rx="1" ry="0.7"/>
		<path opacity="0.1" d="M16,11.4c-0.8,0-1.6-0.4-2-1.1c0.2,0.9,1,1.7,2,1.7s1.8-0.7,2-1.7C17.6,11,16.8,11.4,16,11.4z"/>
	</g>
	<path opacity="0.4" fill="#3399CC" d="M16,9c0,0,0.1-3-2-3s-2,8-2,8s0.3-7.6,2.1-7.6S16,9,16,9z"/>
	<path opacity="0.4" fill="#3399CC" d="M16,9c0,0,0-2-1-2c-1.3,0-1,7.7-1,7.7s0.1-7.2,1.1-7.2C16,7.5,16,9,16,9z"/>
	<path opacity="0.4" fill="#3399CC" d="M16,9c0,0-0.1-3,2-3s2,8,2,8s-0.3-7.6-2.1-7.6S16,9,16,9z"/>
	<path opacity="0.4" fill="#3399CC" d="M17,14c0,0,0.9-2,3-2c3,0,1,8.3,1,8.3s1.3-7.8-1-7.8C18.2,12.4,17,14,17,14z"/>
	<path opacity="0.4" fill="#3399CC" d="M16,15c0,0-0.1-0.7,2-0.7c3,0,0,8.1,0,8.1s2.3-7.6,0-7.6C16.2,14.7,16,15,16,15z"/>
	<path opacity="0.4" fill="#3399CC" d="M15,14c0,0-0.9-2-3-2c-3,0-1,8.3-1,8.3s-1.3-7.8,1-7.8C13.8,12.4,15,14,15,14z"/>
	<path opacity="0.4" fill="#3399CC" d="M16,15c0,0,0.1-0.7-2-0.7c-3,0,0,8.1,0,8.1s-2.3-7.6,0-7.6C15.8,14.7,16,15,16,15z"/>
	<path opacity="0.4" fill="#3399CC" d="M16,8.9c0,0,0-1.9,1-1.9c1.3,0,1,7.7,1,7.7s-0.1-7.2-1.1-7.2C16,7.5,16,8.9,16,8.9z"/>
	<path opacity="0.4" fill="#3399CC" d="M16,15c0,0-0.2-0.5-0.2,0.7S16,21,16,21s0.2-3.9,0.2-5.3S16,15,16,15z"/>
	<path opacity="0.4" fill="#3399CC" d="M20,22c0,0-0.1-1.5,2-1.5c3.7,0,1,10.5,1,10.5s2-10-1-10C20.2,21,20,22,20,22z"/>
	<path opacity="0.4" fill="#3399CC" d="M18,22.7c0,0,0-0.7,1.5-0.7c2.9,0,0.7,9,0.7,9s1.4-8.6-0.7-8.6C18.2,22.4,18,22.7,18,22.7z"
		/>
	<path opacity="0.4" fill="#3399CC" d="M12,22c0,0,0.1-1.5-2-1.5C6.3,20.5,9,31,9,31s-2-10,1-10C11.8,21,12,22,12,22z"/>
	<path opacity="0.4" fill="#3399CC" d="M14,22.7c0,0,0-0.7-1.5-0.7c-2.9,0-0.7,9-0.7,9s-1.4-8.6,0.7-8.6C13.8,22.4,14,22.7,14,22.7z
		"/>
	<path opacity="0.4" fill="#3399CC" d="M16,22.8c0,0-0.2-0.9-0.2,0.6c0,1.2,0.2,6.5,0.2,6.5s0.2-5.1,0.2-6.5
		C16.2,22,16,22.8,16,22.8z"/>
	<path opacity="0.4" fill="#3399CC" d="M16,8.9c0,0-0.2-1.3-0.2-1c0,0.3,0.2,5.8,0.2,5.8s0.2-5.5,0.2-5.8S16,8.9,16,8.9z"/>
</g>
</svg>
