<?xml version="1.0" encoding="utf-8"?>
<!-- Generator: Adobe Illustrator 18.1.0, SVG Export Plug-In . SVG Version: 6.00 Build 0)  -->
<svg version="1.1" id="Layer_1" xmlns="http://www.w3.org/2000/svg" xmlns:xlink="http://www.w3.org/1999/xlink" x="0px" y="0px"
	 viewBox="0 0 96 136" enable-background="new 0 0 96 136" xml:space="preserve">
<g>
	<g>
		<polygon fill="#762C07" points="48,133 0,109 0,38 48,62 		"/>
		<g opacity="0.3">
			<polygon fill="#F8EBCB" points="4,108 1,106.5 1,108.5 4,110 			"/>
			<polygon fill="#F8EBCB" points="8,110 5,108.5 5,110.5 8,112 			"/>
			<polygon fill="#F8EBCB" points="12,112 9,110.5 9,112.5 12,114 			"/>
			<polygon fill="#F8EBCB" points="16,114 13,112.5 13,114.5 16,116 			"/>
			<polygon fill="#F8EBCB" points="20,116 17,114.5 17,116.5 20,118 			"/>
			<polygon fill="#F8EBCB" points="24,118 21,116.5 21,118.5 24,120 			"/>
			<polygon fill="#F8EBCB" points="28,120 25,118.5 25,120.5 28,122 			"/>
			<polygon fill="#F8EBCB" points="32,122 29,120.5 29,122.5 32,124 			"/>
			<polygon fill="#F8EBCB" points="36,124 33,122.5 33,124.5 36,126 			"/>
			<polygon fill="#F8EBCB" points="40,126 37,124.5 37,126.5 40,128 			"/>
			<polygon fill="#F8EBCB" points="44,128 41,126.5 41,128.5 44,130 			"/>
			<polygon fill="#F8EBCB" points="48,130 45,128.5 45,130.5 48,132 			"/>
			<polygon fill="#F8EBCB" points="2,104 0,103 0,105 2,106 			"/>
			<polygon fill="#F8EBCB" points="6,106 3,104.5 3,106.5 6,108 			"/>
			<polygon fill="#F8EBCB" points="10,108 7,106.5 7,108.5 10,110 			"/>
			<polygon fill="#F8EBCB" points="14,110 11,108.5 11,110.5 14,112 			"/>
			<polygon fill="#F8EBCB" points="18,112 15,110.5 15,112.5 18,114 			"/>
			<polygon fill="#F8EBCB" points="22,114 19,112.5 19,114.5 22,116 			"/>
			<polygon fill="#F8EBCB" points="26,116 23,114.5 23,116.5 26,118 			"/>
			<polygon fill="#F8EBCB" points="30,118 27,116.5 27,118.5 30,120 			"/>
			<polygon fill="#F8EBCB" points="34,120 31,118.5 31,120.5 34,122 			"/>
			<polygon fill="#F8EBCB" points="38,122 35,120.5 35,122.5 38,124 			"/>
			<polygon fill="#F8EBCB" points="42,124 39,122.5 39,124.5 42,126 			"/>
			<polygon fill="#F8EBCB" points="46,126 43,124.5 43,126.5 46,128 			"/>
			<polygon fill="#F8EBCB" points="48,127 47,126.5 47,128.5 48,129 			"/>
			<polygon fill="#F8EBCB" points="4,102 1,100.5 1,102.5 4,104 			"/>
			<polygon fill="#F8EBCB" points="8,104 5,102.5 5,104.5 8,106 			"/>
			<polygon fill="#F8EBCB" points="12,106 9,104.5 9,106.5 12,108 			"/>
			<polygon fill="#F8EBCB" points="16,108 13,106.5 13,108.5 16,110 			"/>
			<polygon fill="#F8EBCB" points="20,110 17,108.5 17,110.5 20,112 			"/>
			<polygon fill="#F8EBCB" points="24,112 21,110.5 21,112.5 24,114 			"/>
			<polygon fill="#F8EBCB" points="28,114 25,112.5 25,114.5 28,116 			"/>
			<polygon fill="#F8EBCB" points="32,116 29,114.5 29,116.5 32,118 			"/>
			<polygon fill="#F8EBCB" points="36,118 33,116.5 33,118.5 36,120 			"/>
			<polygon fill="#F8EBCB" points="40,120 37,118.5 37,120.5 40,122 			"/>
			<polygon fill="#F8EBCB" points="44,122 41,120.5 41,122.5 44,124 			"/>
			<polygon fill="#F8EBCB" points="48,124 45,122.5 45,124.5 48,126 			"/>
			<polygon fill="#F8EBCB" points="2,98 0,97 0,99 2,100 			"/>
			<polygon fill="#F8EBCB" points="6,100 3,98.5 3,100.5 6,102 			"/>
			<polygon fill="#F8EBCB" points="10,102 7,100.5 7,102.5 10,104 			"/>
			<polygon fill="#F8EBCB" points="14,104 11,102.5 11,104.5 14,106 			"/>
			<polygon fill="#F8EBCB" points="18,106 15,104.5 15,106.5 18,108 			"/>
			<polygon fill="#F8EBCB" points="22,108 19,106.5 19,108.5 22,110 			"/>
			<polygon fill="#F8EBCB" points="26,110 23,108.5 23,110.5 26,112 			"/>
			<polygon fill="#F8EBCB" points="30,112 27,110.5 27,112.5 30,114 			"/>
			<polygon fill="#F8EBCB" points="34,114 31,112.5 31,114.5 34,116 			"/>
			<polygon fill="#F8EBCB" points="38,116 35,114.5 35,116.5 38,118 			"/>
			<polygon fill="#F8EBCB" points="42,118 39,116.5 39,118.5 42,120 			"/>
			<polygon fill="#F8EBCB" points="46,120 43,118.5 43,120.5 46,122 			"/>
			<polygon fill="#F8EBCB" points="48,121 47,120.5 47,122.5 48,123 			"/>
			<polygon fill="#F8EBCB" points="4,96 1,94.5 1,96.5 4,98 			"/>
			<polygon fill="#F8EBCB" points="8,98 5,96.5 5,98.5 8,100 			"/>
			<polygon fill="#F8EBCB" points="12,100 9,98.5 9,100.5 12,102 			"/>
			<polygon fill="#F8EBCB" points="16,102 13,100.5 13,102.5 16,104 			"/>
			<polygon fill="#F8EBCB" points="20,104 17,102.5 17,104.5 20,106 			"/>
			<polygon fill="#F8EBCB" points="24,106 21,104.5 21,106.5 24,108 			"/>
			<polygon fill="#F8EBCB" points="28,108 25,106.5 25,108.5 28,110 			"/>
			<polygon fill="#F8EBCB" points="32,110 29,108.5 29,110.5 32,112 			"/>
			<polygon fill="#F8EBCB" points="36,112 33,110.5 33,112.5 36,114 			"/>
			<polygon fill="#F8EBCB" points="40,114 37,112.5 37,114.5 40,116 			"/>
			<polygon fill="#F8EBCB" points="44,116 41,114.5 41,116.5 44,118 			"/>
			<polygon fill="#F8EBCB" points="48,118 45,116.5 45,118.5 48,120 			"/>
			<polygon fill="#F8EBCB" points="2,92 0,91 0,93 2,94 			"/>
			<polygon fill="#F8EBCB" points="6,94 3,92.5 3,94.5 6,96 			"/>
			<polygon fill="#F8EBCB" points="10,96 7,94.5 7,96.5 10,98 			"/>
			<polygon fill="#F8EBCB" points="14,98 11,96.5 11,98.5 14,100 			"/>
			<polygon fill="#F8EBCB" points="18,100 15,98.5 15,100.5 18,102 			"/>
			<polygon fill="#F8EBCB" points="22,102 19,100.5 19,102.5 22,104 			"/>
			<polygon fill="#F8EBCB" points="26,104 23,102.5 23,104.5 26,106 			"/>
			<polygon fill="#F8EBCB" points="30,106 27,104.5 27,106.5 30,108 			"/>
			<polygon fill="#F8EBCB" points="34,108 31,106.5 31,108.5 34,110 			"/>
			<polygon fill="#F8EBCB" points="38,110 35,108.5 35,110.5 38,112 			"/>
			<polygon fill="#F8EBCB" points="42,112 39,110.5 39,112.5 42,114 			"/>
			<polygon fill="#F8EBCB" points="46,114 43,112.5 43,114.5 46,116 			"/>
			<polygon fill="#F8EBCB" points="48,115 47,114.5 47,116.5 48,117 			"/>
			<polygon fill="#F8EBCB" points="4,90 1,88.5 1,90.5 4,92 			"/>
			<polygon fill="#F8EBCB" points="8,92 5,90.5 5,92.5 8,94 			"/>
			<polygon fill="#F8EBCB" points="12,94 9,92.5 9,94.5 12,96 			"/>
			<polygon fill="#F8EBCB" points="16,96 13,94.5 13,96.5 16,98 			"/>
			<polygon fill="#F8EBCB" points="20,98 17,96.5 17,98.5 20,100 			"/>
			<polygon fill="#F8EBCB" points="24,100 21,98.5 21,100.5 24,102 			"/>
			<polygon fill="#F8EBCB" points="28,102 25,100.5 25,102.5 28,104 			"/>
			<polygon fill="#F8EBCB" points="32,104 29,102.5 29,104.5 32,106 			"/>
			<polygon fill="#F8EBCB" points="36,106 33,104.5 33,106.5 36,108 			"/>
			<polygon fill="#F8EBCB" points="40,108 37,106.5 37,108.5 40,110 			"/>
			<polygon fill="#F8EBCB" points="44,110 41,108.5 41,110.5 44,112 			"/>
			<polygon fill="#F8EBCB" points="48,112 45,110.5 45,112.5 48,114 			"/>
			<polygon fill="#F8EBCB" points="2,86 0,85 0,87 2,88 			"/>
			<polygon fill="#F8EBCB" points="6,88 3,86.5 3,88.5 6,90 			"/>
			<polygon fill="#F8EBCB" points="10,90 7,88.5 7,90.5 10,92 			"/>
			<polygon fill="#F8EBCB" points="14,92 11,90.5 11,92.5 14,94 			"/>
			<polygon fill="#F8EBCB" points="18,94 15,92.5 15,94.5 18,96 			"/>
			<polygon fill="#F8EBCB" points="22,96 19,94.5 19,96.5 22,98 			"/>
			<polygon fill="#F8EBCB" points="26,98 23,96.5 23,98.5 26,100 			"/>
			<polygon fill="#F8EBCB" points="30,100 27,98.5 27,100.5 30,102 			"/>
			<polygon fill="#F8EBCB" points="34,102 31,100.5 31,102.5 34,104 			"/>
			<polygon fill="#F8EBCB" points="38,104 35,102.5 35,104.5 38,106 			"/>
			<polygon fill="#F8EBCB" points="42,106 39,104.5 39,106.5 42,108 			"/>
			<polygon fill="#F8EBCB" points="46,108 43,106.5 43,108.5 46,110 			"/>
			<polygon fill="#F8EBCB" points="48,109 47,108.5 47,110.5 48,111 			"/>
			<polygon fill="#F8EBCB" points="4,84 1,82.5 1,84.5 4,86 			"/>
			<polygon fill="#F8EBCB" points="8,86 5,84.5 5,86.5 8,88 			"/>
			<polygon fill="#F8EBCB" points="12,88 9,86.5 9,88.5 12,90 			"/>
			<polygon fill="#F8EBCB" points="16,90 13,88.5 13,90.5 16,92 			"/>
			<polygon fill="#F8EBCB" points="20,92 17,90.5 17,92.5 20,94 			"/>
			<polygon fill="#F8EBCB" points="24,94 21,92.5 21,94.5 24,96 			"/>
			<polygon fill="#F8EBCB" points="28,96 25,94.5 25,96.5 28,98 			"/>
			<polygon fill="#F8EBCB" points="32,98 29,96.5 29,98.5 32,100 			"/>
			<polygon fill="#F8EBCB" points="36,100 33,98.5 33,100.5 36,102 			"/>
			<polygon fill="#F8EBCB" points="40,102 37,100.5 37,102.5 40,104 			"/>
			<polygon fill="#F8EBCB" points="44,104 41,102.5 41,104.5 44,106 			"/>
			<polygon fill="#F8EBCB" points="48,106 45,104.5 45,106.5 48,108 			"/>
			<polygon fill="#F8EBCB" points="2,80 0,79 0,81 2,82 			"/>
			<polygon fill="#F8EBCB" points="6,82 3,80.5 3,82.5 6,84 			"/>
			<polygon fill="#F8EBCB" points="10,84 7,82.5 7,84.5 10,86 			"/>
			<polygon fill="#F8EBCB" points="14,86 11,84.5 11,86.5 14,88 			"/>
			<polygon fill="#F8EBCB" points="18,88 15,86.5 15,88.5 18,90 			"/>
			<polygon fill="#F8EBCB" points="22,90 19,88.5 19,90.5 22,92 			"/>
			<polygon fill="#F8EBCB" points="26,92 23,90.5 23,92.5 26,94 			"/>
			<polygon fill="#F8EBCB" points="30,94 27,92.5 27,94.5 30,96 			"/>
			<polygon fill="#F8EBCB" points="34,96 31,94.5 31,96.5 34,98 			"/>
			<polygon fill="#F8EBCB" points="38,98 35,96.5 35,98.5 38,100 			"/>
			<polygon fill="#F8EBCB" points="42,100 39,98.5 39,100.5 42,102 			"/>
			<polygon fill="#F8EBCB" points="46,102 43,100.5 43,102.5 46,104 			"/>
			<polygon fill="#F8EBCB" points="48,103 47,102.5 47,104.5 48,105 			"/>
			<polygon fill="#F8EBCB" points="4,78 1,76.5 1,78.5 4,80 			"/>
			<polygon fill="#F8EBCB" points="8,80 5,78.5 5,80.5 8,82 			"/>
			<polygon fill="#F8EBCB" points="12,82 9,80.5 9,82.5 12,84 			"/>
			<polygon fill="#F8EBCB" points="16,84 13,82.5 13,84.5 16,86 			"/>
			<polygon fill="#F8EBCB" points="20,86 17,84.5 17,86.5 20,88 			"/>
			<polygon fill="#F8EBCB" points="24,88 21,86.5 21,88.5 24,90 			"/>
			<polygon fill="#F8EBCB" points="28,90 25,88.5 25,90.5 28,92 			"/>
			<polygon fill="#F8EBCB" points="32,92 29,90.5 29,92.5 32,94 			"/>
			<polygon fill="#F8EBCB" points="36,94 33,92.5 33,94.5 36,96 			"/>
			<polygon fill="#F8EBCB" points="40,96 37,94.5 37,96.5 40,98 			"/>
			<polygon fill="#F8EBCB" points="44,98 41,96.5 41,98.5 44,100 			"/>
			<polygon fill="#F8EBCB" points="48,100 45,98.5 45,100.5 48,102 			"/>
			<polygon fill="#F8EBCB" points="2,74 0,73 0,75 2,76 			"/>
			<polygon fill="#F8EBCB" points="6,76 3,74.5 3,76.5 6,78 			"/>
			<polygon fill="#F8EBCB" points="10,78 7,76.5 7,78.5 10,80 			"/>
			<polygon fill="#F8EBCB" points="14,80 11,78.5 11,80.5 14,82 			"/>
			<polygon fill="#F8EBCB" points="18,82 15,80.5 15,82.5 18,84 			"/>
			<polygon fill="#F8EBCB" points="22,84 19,82.5 19,84.5 22,86 			"/>
			<polygon fill="#F8EBCB" points="26,86 23,84.5 23,86.5 26,88 			"/>
			<polygon fill="#F8EBCB" points="30,88 27,86.5 27,88.5 30,90 			"/>
			<polygon fill="#F8EBCB" points="34,90 31,88.5 31,90.5 34,92 			"/>
			<polygon fill="#F8EBCB" points="38,92 35,90.5 35,92.5 38,94 			"/>
			<polygon fill="#F8EBCB" points="42,94 39,92.5 39,94.5 42,96 			"/>
			<polygon fill="#F8EBCB" points="46,96 43,94.5 43,96.5 46,98 			"/>
			<polygon fill="#F8EBCB" points="48,97 47,96.5 47,98.5 48,99 			"/>
			<polygon fill="#F8EBCB" points="4,72 1,70.5 1,72.5 4,74 			"/>
			<polygon fill="#F8EBCB" points="8,74 5,72.5 5,74.5 8,76 			"/>
			<polygon fill="#F8EBCB" points="12,76 9,74.5 9,76.5 12,78 			"/>
			<polygon fill="#F8EBCB" points="16,78 13,76.5 13,78.5 16,80 			"/>
			<polygon fill="#F8EBCB" points="20,80 17,78.5 17,80.5 20,82 			"/>
			<polygon fill="#F8EBCB" points="24,82 21,80.5 21,82.5 24,84 			"/>
			<polygon fill="#F8EBCB" points="28,84 25,82.5 25,84.5 28,86 			"/>
			<polygon fill="#F8EBCB" points="32,86 29,84.5 29,86.5 32,88 			"/>
			<polygon fill="#F8EBCB" points="36,88 33,86.5 33,88.5 36,90 			"/>
			<polygon fill="#F8EBCB" points="40,90 37,88.5 37,90.5 40,92 			"/>
			<polygon fill="#F8EBCB" points="44,92 41,90.5 41,92.5 44,94 			"/>
			<polygon fill="#F8EBCB" points="48,94 45,92.5 45,94.5 48,96 			"/>
			<polygon fill="#F8EBCB" points="2,68 0,67 0,69 2,70 			"/>
			<polygon fill="#F8EBCB" points="6,70 3,68.5 3,70.5 6,72 			"/>
			<polygon fill="#F8EBCB" points="10,72 7,70.5 7,72.5 10,74 			"/>
			<polygon fill="#F8EBCB" points="14,74 11,72.5 11,74.5 14,76 			"/>
			<polygon fill="#F8EBCB" points="18,76 15,74.5 15,76.5 18,78 			"/>
			<polygon fill="#F8EBCB" points="22,78 19,76.5 19,78.5 22,80 			"/>
			<polygon fill="#F8EBCB" points="26,80 23,78.5 23,80.5 26,82 			"/>
			<polygon fill="#F8EBCB" points="30,82 27,80.5 27,82.5 30,84 			"/>
			<polygon fill="#F8EBCB" points="34,84 31,82.5 31,84.5 34,86 			"/>
			<polygon fill="#F8EBCB" points="38,86 35,84.5 35,86.5 38,88 			"/>
			<polygon fill="#F8EBCB" points="42,88 39,86.5 39,88.5 42,90 			"/>
			<polygon fill="#F8EBCB" points="46,90 43,88.5 43,90.5 46,92 			"/>
			<polygon fill="#F8EBCB" points="48,91 47,90.5 47,92.5 48,93 			"/>
			<polygon fill="#F8EBCB" points="4,66 1,64.5 1,66.5 4,68 			"/>
			<polygon fill="#F8EBCB" points="8,68 5,66.5 5,68.5 8,70 			"/>
			<polygon fill="#F8EBCB" points="12,70 9,68.5 9,70.5 12,72 			"/>
			<polygon fill="#F8EBCB" points="16,72 13,70.5 13,72.5 16,74 			"/>
			<polygon fill="#F8EBCB" points="20,74 17,72.5 17,74.5 20,76 			"/>
			<polygon fill="#F8EBCB" points="24,76 21,74.5 21,76.5 24,78 			"/>
			<polygon fill="#F8EBCB" points="28,78 25,76.5 25,78.5 28,80 			"/>
			<polygon fill="#F8EBCB" points="32,80 29,78.5 29,80.5 32,82 			"/>
			<polygon fill="#F8EBCB" points="36,82 33,80.5 33,82.5 36,84 			"/>
			<polygon fill="#F8EBCB" points="40,84 37,82.5 37,84.5 40,86 			"/>
			<polygon fill="#F8EBCB" points="44,86 41,84.5 41,86.5 44,88 			"/>
			<polygon fill="#F8EBCB" points="48,88 45,86.5 45,88.5 48,90 			"/>
			<polygon fill="#F8EBCB" points="2,62 0,61 0,63 2,64 			"/>
			<polygon fill="#F8EBCB" points="6,64 3,62.5 3,64.5 6,66 			"/>
			<polygon fill="#F8EBCB" points="10,66 7,64.5 7,66.5 10,68 			"/>
			<polygon fill="#F8EBCB" points="14,68 11,66.5 11,68.5 14,70 			"/>
			<polygon fill="#F8EBCB" points="18,70 15,68.5 15,70.5 18,72 			"/>
			<polygon fill="#F8EBCB" points="22,72 19,70.5 19,72.5 22,74 			"/>
			<polygon fill="#F8EBCB" points="26,74 23,72.5 23,74.5 26,76 			"/>
			<polygon fill="#F8EBCB" points="30,76 27,74.5 27,76.5 30,78 			"/>
			<polygon fill="#F8EBCB" points="34,78 31,76.5 31,78.5 34,80 			"/>
			<polygon fill="#F8EBCB" points="38,80 35,78.5 35,80.5 38,82 			"/>
			<polygon fill="#F8EBCB" points="42,82 39,80.5 39,82.5 42,84 			"/>
			<polygon fill="#F8EBCB" points="46,84 43,82.5 43,84.5 46,86 			"/>
			<polygon fill="#F8EBCB" points="48,85 47,84.5 47,86.5 48,87 			"/>
			<polygon fill="#F8EBCB" points="4,60 1,58.5 1,60.5 4,62 			"/>
			<polygon fill="#F8EBCB" points="8,62 5,60.5 5,62.5 8,64 			"/>
			<polygon fill="#F8EBCB" points="12,64 9,62.5 9,64.5 12,66 			"/>
			<polygon fill="#F8EBCB" points="16,66 13,64.5 13,66.5 16,68 			"/>
			<polygon fill="#F8EBCB" points="20,68 17,66.5 17,68.5 20,70 			"/>
			<polygon fill="#F8EBCB" points="24,70 21,68.5 21,70.5 24,72 			"/>
			<polygon fill="#F8EBCB" points="28,72 25,70.5 25,72.5 28,74 			"/>
			<polygon fill="#F8EBCB" points="32,74 29,72.5 29,74.5 32,76 			"/>
			<polygon fill="#F8EBCB" points="36,76 33,74.5 33,76.5 36,78 			"/>
			<polygon fill="#F8EBCB" points="40,78 37,76.5 37,78.5 40,80 			"/>
			<polygon fill="#F8EBCB" points="44,80 41,78.5 41,80.5 44,82 			"/>
			<polygon fill="#F8EBCB" points="48,82 45,80.5 45,82.5 48,84 			"/>
			<polygon fill="#F8EBCB" points="2,56 0,55 0,57 2,58 			"/>
			<polygon fill="#F8EBCB" points="6,58 3,56.5 3,58.5 6,60 			"/>
			<polygon fill="#F8EBCB" points="10,60 7,58.5 7,60.5 10,62 			"/>
			<polygon fill="#F8EBCB" points="14,62 11,60.5 11,62.5 14,64 			"/>
			<polygon fill="#F8EBCB" points="18,64 15,62.5 15,64.5 18,66 			"/>
			<polygon fill="#F8EBCB" points="22,66 19,64.5 19,66.5 22,68 			"/>
			<polygon fill="#F8EBCB" points="26,68 23,66.5 23,68.5 26,70 			"/>
			<polygon fill="#F8EBCB" points="30,70 27,68.5 27,70.5 30,72 			"/>
			<polygon fill="#F8EBCB" points="34,72 31,70.5 31,72.5 34,74 			"/>
			<polygon fill="#F8EBCB" points="38,74 35,72.5 35,74.5 38,76 			"/>
			<polygon fill="#F8EBCB" points="42,76 39,74.5 39,76.5 42,78 			"/>
			<polygon fill="#F8EBCB" points="46,78 43,76.5 43,78.5 46,80 			"/>
			<polygon fill="#F8EBCB" points="48,79 47,78.5 47,80.5 48,81 			"/>
			<polygon fill="#F8EBCB" points="4,54 1,52.5 1,54.5 4,56 			"/>
			<polygon fill="#F8EBCB" points="8,56 5,54.5 5,56.5 8,58 			"/>
			<polygon fill="#F8EBCB" points="12,58 9,56.5 9,58.5 12,60 			"/>
			<polygon fill="#F8EBCB" points="16,60 13,58.5 13,60.5 16,62 			"/>
			<polygon fill="#F8EBCB" points="20,62 17,60.5 17,62.5 20,64 			"/>
			<polygon fill="#F8EBCB" points="24,64 21,62.5 21,64.5 24,66 			"/>
			<polygon fill="#F8EBCB" points="28,66 25,64.5 25,66.5 28,68 			"/>
			<polygon fill="#F8EBCB" points="32,68 29,66.5 29,68.5 32,70 			"/>
			<polygon fill="#F8EBCB" points="36,70 33,68.5 33,70.5 36,72 			"/>
			<polygon fill="#F8EBCB" points="40,72 37,70.5 37,72.5 40,74 			"/>
			<polygon fill="#F8EBCB" points="44,74 41,72.5 41,74.5 44,76 			"/>
			<polygon fill="#F8EBCB" points="48,76 45,74.5 45,76.5 48,78 			"/>
			<polygon fill="#F8EBCB" points="2,50 0,49 0,51 2,52 			"/>
			<polygon fill="#F8EBCB" points="6,52 3,50.5 3,52.5 6,54 			"/>
			<polygon fill="#F8EBCB" points="10,54 7,52.5 7,54.5 10,56 			"/>
			<polygon fill="#F8EBCB" points="14,56 11,54.5 11,56.5 14,58 			"/>
			<polygon fill="#F8EBCB" points="18,58 15,56.5 15,58.5 18,60 			"/>
			<polygon fill="#F8EBCB" points="22,60 19,58.5 19,60.5 22,62 			"/>
			<polygon fill="#F8EBCB" points="26,62 23,60.5 23,62.5 26,64 			"/>
			<polygon fill="#F8EBCB" points="30,64 27,62.5 27,64.5 30,66 			"/>
			<polygon fill="#F8EBCB" points="34,66 31,64.5 31,66.5 34,68 			"/>
			<polygon fill="#F8EBCB" points="38,68 35,66.5 35,68.5 38,70 			"/>
			<polygon fill="#F8EBCB" points="42,70 39,68.5 39,70.5 42,72 			"/>
			<polygon fill="#F8EBCB" points="46,72 43,70.5 43,72.5 46,74 			"/>
			<polygon fill="#F8EBCB" points="48,73 47,72.5 47,74.5 48,75 			"/>
			<polygon fill="#F8EBCB" points="4,48 1,46.5 1,48.5 4,50 			"/>
			<polygon fill="#F8EBCB" points="8,50 5,48.5 5,50.5 8,52 			"/>
			<polygon fill="#F8EBCB" points="12,52 9,50.5 9,52.5 12,54 			"/>
			<polygon fill="#F8EBCB" points="16,54 13,52.5 13,54.5 16,56 			"/>
			<polygon fill="#F8EBCB" points="20,56 17,54.5 17,56.5 20,58 			"/>
			<polygon fill="#F8EBCB" points="24,58 21,56.5 21,58.5 24,60 			"/>
			<polygon fill="#F8EBCB" points="28,60 25,58.5 25,60.5 28,62 			"/>
			<polygon fill="#F8EBCB" points="32,62 29,60.5 29,62.5 32,64 			"/>
			<polygon fill="#F8EBCB" points="36,64 33,62.5 33,64.5 36,66 			"/>
			<polygon fill="#F8EBCB" points="40,66 37,64.5 37,66.5 40,68 			"/>
			<polygon fill="#F8EBCB" points="44,68 41,66.5 41,68.5 44,70 			"/>
			<polygon fill="#F8EBCB" points="48,70 45,68.5 45,70.5 48,72 			"/>
			<polygon fill="#F8EBCB" points="2,44 0,43 0,45 2,46 			"/>
			<polygon fill="#F8EBCB" points="6,46 3,44.5 3,46.5 6,48 			"/>
			<polygon fill="#F8EBCB" points="10,48 7,46.5 7,48.5 10,50 			"/>
			<polygon fill="#F8EBCB" points="14,50 11,48.5 11,50.5 14,52 			"/>
			<polygon fill="#F8EBCB" points="18,52 15,50.5 15,52.5 18,54 			"/>
			<polygon fill="#F8EBCB" points="22,54 19,52.5 19,54.5 22,56 			"/>
			<polygon fill="#F8EBCB" points="26,56 23,54.5 23,56.5 26,58 			"/>
			<polygon fill="#F8EBCB" points="30,58 27,56.5 27,58.5 30,60 			"/>
			<polygon fill="#F8EBCB" points="34,60 31,58.5 31,60.5 34,62 			"/>
			<polygon fill="#F8EBCB" points="38,62 35,60.5 35,62.5 38,64 			"/>
			<polygon fill="#F8EBCB" points="42,64 39,62.5 39,64.5 42,66 			"/>
			<polygon fill="#F8EBCB" points="46,66 43,64.5 43,66.5 46,68 			"/>
			<polygon fill="#F8EBCB" points="48,67 47,66.5 47,68.5 48,69 			"/>
			<polygon fill="#F8EBCB" points="4,42 1,40.5 1,42.5 4,44 			"/>
			<polygon fill="#F8EBCB" points="8,44 5,42.5 5,44.5 8,46 			"/>
			<polygon fill="#F8EBCB" points="12,46 9,44.5 9,46.5 12,48 			"/>
			<polygon fill="#F8EBCB" points="16,48 13,46.5 13,48.5 16,50 			"/>
			<polygon fill="#F8EBCB" points="20,50 17,48.5 17,50.5 20,52 			"/>
			<polygon fill="#F8EBCB" points="24,52 21,50.5 21,52.5 24,54 			"/>
			<polygon fill="#F8EBCB" points="28,54 25,52.5 25,54.5 28,56 			"/>
			<polygon fill="#F8EBCB" points="32,56 29,54.5 29,56.5 32,58 			"/>
			<polygon fill="#F8EBCB" points="36,58 33,56.5 33,58.5 36,60 			"/>
			<polygon fill="#F8EBCB" points="40,60 37,58.5 37,60.5 40,62 			"/>
			<polygon fill="#F8EBCB" points="44,62 41,60.5 41,62.5 44,64 			"/>
			<polygon fill="#F8EBCB" points="48,64 45,62.5 45,64.5 48,66 			"/>
		</g>
		<g>
			<g>
				<polygon fill="#BAA794" points="44,99 35,94.5 35,81.5 44,86 				"/>
				<g>
					<polygon fill="#3399CC" points="36,83 36,94 39,95.5 39,84.5 					"/>
					<polygon opacity="0.2" fill="#FFFFFF" points="36,88 36,94 39,95.5 					"/>
					<polygon fill="#3399CC" points="40,85 40,96 43,97.5 43,86.5 					"/>
				</g>
				<polygon opacity="0.15" points="39,85.5 36,84 36,83 39,84.5 				"/>
				<polygon opacity="0.15" points="43,87.5 40,86 40,85 43,86.5 				"/>
				<polygon opacity="0.15" points="43,94.5 40,86 40,85 43,86.5 				"/>
				<polygon fill="#BAA794" points="43,90.5 36,87 36,86 43,89.5 				"/>
				<polygon fill="#BAA794" points="43,94.5 36,91 36,90 43,93.5 				"/>
			</g>
			<polygon fill="#F8EBCB" points="44,86 35,81.5 35,79.5 44,84 			"/>
			<polygon fill="#F8EBCB" points="44,100 35,95.5 35,94.5 44,99 			"/>
		</g>
		<g>
			<g>
				<polygon fill="#BAA794" points="44,79 35,74.5 35,61.5 44,66 				"/>
				<g>
					<polygon fill="#3399CC" points="36,63 36,74 39,75.5 39,64.5 					"/>
					<polygon opacity="0.2" fill="#FFFFFF" points="36,68 36,74 39,75.5 					"/>
					<polygon fill="#3399CC" points="40,65 40,76 43,77.5 43,66.5 					"/>
				</g>
				<polygon opacity="0.15" points="39,65.5 36,64 36,63 39,64.5 				"/>
				<polygon opacity="0.15" points="43,67.5 40,66 40,65 43,66.5 				"/>
				<polygon opacity="0.15" points="43,74.5 40,66 40,65 43,66.5 				"/>
				<polygon fill="#BAA794" points="43,70.5 36,67 36,66 43,69.5 				"/>
				<polygon fill="#BAA794" points="43,74.5 36,71 36,70 43,73.5 				"/>
			</g>
			<polygon fill="#F8EBCB" points="44,66 35,61.5 35,60.5 44,65 			"/>
			<polygon fill="#F8EBCB" points="44,80 35,75.5 35,74.5 44,79 			"/>
		</g>
		<g opacity="0.3">
			<polygon fill="#F8EBCB" points="4,108 1,106.5 1,108.5 4,110 			"/>
			<polygon fill="#F8EBCB" points="48,130 45,128.5 45,130.5 48,132 			"/>
			<polygon fill="#F8EBCB" points="2,104 0,103 0,105 2,106 			"/>
			<polygon fill="#F8EBCB" points="48,127 47,126.5 47,128.5 48,129 			"/>
			<polygon fill="#F8EBCB" points="4,102 1,100.5 1,102.5 4,104 			"/>
			<polygon fill="#F8EBCB" points="48,124 45,122.5 45,124.5 48,126 			"/>
			<polygon fill="#F8EBCB" points="2,98 0,97 0,99 2,100 			"/>
			<polygon fill="#F8EBCB" points="48,121 47,120.5 47,122.5 48,123 			"/>
			<polygon fill="#F8EBCB" points="4,96 1,94.5 1,96.5 4,98 			"/>
			<polygon fill="#F8EBCB" points="48,118 45,116.5 45,118.5 48,120 			"/>
			<polygon fill="#F8EBCB" points="2,92 0,91 0,93 2,94 			"/>
			<polygon fill="#F8EBCB" points="48,115 47,114.5 47,116.5 48,117 			"/>
			<polygon fill="#F8EBCB" points="4,90 1,88.5 1,90.5 4,92 			"/>
			<polygon fill="#F8EBCB" points="48,112 45,110.5 45,112.5 48,114 			"/>
			<polygon fill="#F8EBCB" points="2,86 0,85 0,87 2,88 			"/>
			<polygon fill="#F8EBCB" points="48,109 47,108.5 47,110.5 48,111 			"/>
			<polygon fill="#F8EBCB" points="4,84 1,82.5 1,84.5 4,86 			"/>
			<polygon fill="#F8EBCB" points="48,106 45,104.5 45,106.5 48,108 			"/>
			<polygon fill="#F8EBCB" points="2,80 0,79 0,81 2,82 			"/>
			<polygon fill="#F8EBCB" points="48,103 47,102.5 47,104.5 48,105 			"/>
			<polygon fill="#F8EBCB" points="4,78 1,76.5 1,78.5 4,80 			"/>
			<polygon fill="#F8EBCB" points="48,100 45,98.5 45,100.5 48,102 			"/>
			<polygon fill="#F8EBCB" points="2,74 0,73 0,75 2,76 			"/>
			<polygon fill="#F8EBCB" points="48,97 47,96.5 47,98.5 48,99 			"/>
			<polygon fill="#F8EBCB" points="4,72 1,70.5 1,72.5 4,74 			"/>
			<polygon fill="#F8EBCB" points="48,94 45,92.5 45,94.5 48,96 			"/>
			<polygon fill="#F8EBCB" points="2,68 0,67 0,69 2,70 			"/>
			<polygon fill="#F8EBCB" points="48,91 47,90.5 47,92.5 48,93 			"/>
			<polygon fill="#F8EBCB" points="4,66 1,64.5 1,66.5 4,68 			"/>
			<polygon fill="#F8EBCB" points="48,88 45,86.5 45,88.5 48,90 			"/>
			<polygon fill="#F8EBCB" points="2,62 0,61 0,63 2,64 			"/>
			<polygon fill="#F8EBCB" points="48,85 47,84.5 47,86.5 48,87 			"/>
			<polygon fill="#F8EBCB" points="4,60 1,58.5 1,60.5 4,62 			"/>
			<polygon fill="#F8EBCB" points="48,82 45,80.5 45,82.5 48,84 			"/>
			<polygon fill="#F8EBCB" points="2,56 0,55 0,57 2,58 			"/>
			<polygon fill="#F8EBCB" points="48,79 47,78.5 47,80.5 48,81 			"/>
			<polygon fill="#F8EBCB" points="4,54 1,52.5 1,54.5 4,56 			"/>
			<polygon fill="#F8EBCB" points="48,76 45,74.5 45,76.5 48,78 			"/>
			<polygon fill="#F8EBCB" points="2,50 0,49 0,51 2,52 			"/>
			<polygon fill="#F8EBCB" points="48,73 47,72.5 47,74.5 48,75 			"/>
			<polygon fill="#F8EBCB" points="4,48 1,46.5 1,48.5 4,50 			"/>
			<polygon fill="#F8EBCB" points="48,70 45,68.5 45,70.5 48,72 			"/>
			<polygon fill="#F8EBCB" points="2,44 0,43 0,45 2,46 			"/>
			<polygon fill="#F8EBCB" points="48,67 47,66.5 47,68.5 48,69 			"/>
			<polygon fill="#F8EBCB" points="4,42 1,40.5 1,42.5 4,44 			"/>
			<polygon fill="#F8EBCB" points="48,64 45,62.5 45,64.5 48,66 			"/>
		</g>
		<g>
			<g>
				<polygon fill="#BAA794" points="13,83.5 4,79 4,66 13,70.5 				"/>
				<g>
					<polygon fill="#3399CC" points="5,67.5 5,78.5 8,80 8,69 					"/>
					<polygon opacity="0.2" fill="#FFFFFF" points="5,72.5 5,78.5 8,80 					"/>
					<polygon fill="#3399CC" points="9,69.5 9,80.5 12,82 12,71 					"/>
				</g>
				<polygon opacity="0.15" points="8,70 5,68.5 5,67.5 8,69 				"/>
				<polygon opacity="0.15" points="12,72 9,70.5 9,69.5 12,71 				"/>
				<polygon opacity="0.15" points="12,79 9,70.5 9,69.5 12,71 				"/>
				<polygon fill="#BAA794" points="12,75 5,71.5 5,70.5 12,74 				"/>
				<polygon fill="#BAA794" points="12,79 5,75.5 5,74.5 12,78 				"/>
			</g>
			<polygon fill="#F8EBCB" points="13,70.5 4,66 4,64 13,68.5 			"/>
			<polygon fill="#F8EBCB" points="13,84.5 4,80 4,79 13,83.5 			"/>
		</g>
		<g>
			<g>
				<polygon fill="#BAA794" points="13,104.5 4,100 4,87 13,91.5 				"/>
				<g>
					<polygon fill="#3399CC" points="5,88.5 5,99.5 8,101 8,90 					"/>
					<polygon opacity="0.2" fill="#FFFFFF" points="5,93.5 5,99.5 8,101 					"/>
					<polygon fill="#3399CC" points="9,90.5 9,101.5 12,103 12,92 					"/>
				</g>
				<polygon opacity="0.15" points="8,91 5,89.5 5,88.5 8,90 				"/>
				<polygon opacity="0.15" points="12,93 9,91.5 9,90.5 12,92 				"/>
				<polygon opacity="0.15" points="12,100 9,91.5 9,90.5 12,92 				"/>
				<polygon fill="#BAA794" points="12,96 5,92.5 5,91.5 12,95 				"/>
				<polygon fill="#BAA794" points="12,100 5,96.5 5,95.5 12,99 				"/>
			</g>
			<polygon fill="#F8EBCB" points="13,91.5 4,87 4,86 8,86 9,86.5 13,90.5 			"/>
			<polygon fill="#F8EBCB" points="13,105.5 4,101 4,100 13,104.5 			"/>
		</g>
		<g>
			<g>
				<polygon fill="#BAA794" points="26,90 17,85.5 17,72.5 26,77 				"/>
				<g>
					<polygon fill="#3399CC" points="18,74 18,85 21,86.5 21,75.5 					"/>
					<polygon opacity="0.2" fill="#FFFFFF" points="18,79 18,85 21,86.5 					"/>
					<polygon fill="#3399CC" points="22,76 22,87 25,88.5 25,77.5 					"/>
				</g>
				<polygon opacity="0.15" points="21,76.5 18,75 18,74 21,75.5 				"/>
				<polygon opacity="0.15" points="25,78.5 22,77 22,76 25,77.5 				"/>
				<polygon opacity="0.15" points="25,85.5 22,77 22,76 25,77.5 				"/>
				<polygon fill="#BAA794" points="25,81.5 18,78 18,77 25,80.5 				"/>
				<polygon fill="#BAA794" points="25,85.5 18,82 18,81 25,84.5 				"/>
			</g>
			<polygon fill="#F8EBCB" points="26,77 17,72.5 17,70.5 26,75 			"/>
			<polygon fill="#F8EBCB" points="26,91 17,86.5 17,85.5 26,90 			"/>
		</g>
		<g>
			<g>
				<polygon fill="#BAA794" points="13,63.5 4,59 4,46 13,50.5 				"/>
				<g>
					<polygon fill="#3399CC" points="5,47.5 5,58.5 8,60 8,49 					"/>
					<polygon opacity="0.2" fill="#FFFFFF" points="5,52.5 5,58.5 8,60 					"/>
					<polygon fill="#3399CC" points="9,49.5 9,60.5 12,62 12,51 					"/>
				</g>
				<polygon opacity="0.15" points="8,50 5,48.5 5,47.5 8,49 				"/>
				<polygon opacity="0.15" points="12,52 9,50.5 9,49.5 12,51 				"/>
				<polygon opacity="0.15" points="12,59 9,50.5 9,49.5 12,51 				"/>
				<polygon fill="#BAA794" points="12,55 5,51.5 5,50.5 12,54 				"/>
				<polygon fill="#BAA794" points="12,59 5,55.5 5,54.5 12,58 				"/>
			</g>
			<polygon fill="#F8EBCB" points="13,50.5 4,46 4,45 13,49.5 			"/>
			<polygon fill="#F8EBCB" points="13,64.5 4,60 4,59 13,63.5 			"/>
		</g>
		<g>
			<g>
				<polygon fill="#BAA794" points="26,70 17,65.5 17,52.5 26,57 				"/>
				<g>
					<polygon fill="#3399CC" points="18,54 18,65 21,66.5 21,55.5 					"/>
					<polygon opacity="0.2" fill="#FFFFFF" points="18,59 18,65 21,66.5 					"/>
					<polygon fill="#3399CC" points="22,56 22,67 25,68.5 25,57.5 					"/>
				</g>
				<polygon opacity="0.15" points="21,56.5 18,55 18,54 21,55.5 				"/>
				<polygon opacity="0.15" points="25,58.5 22,57 22,56 25,57.5 				"/>
				<polygon opacity="0.15" points="25,65.5 22,57 22,56 25,57.5 				"/>
				<polygon fill="#BAA794" points="25,61.5 18,58 18,57 25,60.5 				"/>
				<polygon fill="#BAA794" points="25,65.5 18,62 18,61 25,64.5 				"/>
			</g>
			<polygon fill="#F8EBCB" points="26,57 17,52.5 17,51.5 26,56 			"/>
			<polygon fill="#F8EBCB" points="26,71 17,66.5 17,65.5 26,70 			"/>
		</g>
		<g>
			<g>
				<polygon fill="#BAA794" points="26,111 17,106.5 17,93.5 26,98 				"/>
				<g>
					<polygon fill="#3399CC" points="18,95 18,106 21,107.5 21,96.5 					"/>
					<polygon opacity="0.2" fill="#FFFFFF" points="18,100 18,106 21,107.5 					"/>
					<polygon fill="#3399CC" points="22,97 22,108 25,109.5 25,98.5 					"/>
				</g>
				<polygon opacity="0.15" points="21,97.5 18,96 18,95 21,96.5 				"/>
				<polygon opacity="0.15" points="25,99.5 22,98 22,97 25,98.5 				"/>
				<polygon opacity="0.15" points="25,106.5 22,98 22,97 25,98.5 				"/>
				<polygon fill="#BAA794" points="25,102.5 18,99 18,98 25,101.5 				"/>
				<polygon fill="#BAA794" points="25,106.5 18,103 18,102 25,105.5 				"/>
			</g>
			<polygon fill="#F8EBCB" points="26,98 17,93.5 17,92.5 21,92.5 22,93 26,97 			"/>
			<polygon fill="#F8EBCB" points="26,112 17,107.5 17,106.5 26,111 			"/>
		</g>
		<polygon fill="#F8EBCB" points="48,136 0,112 0,109 48,133 		"/>
		<polygon fill="#F8EBCB" points="48,63 0,39 0,38 48,62 		"/>
		<polygon opacity="0.06" points="48,136 0,112 0,38 48,62 		"/>
		<polygon fill="#762C07" points="40,124 32,128 32,99 40,103 		"/>
		<polygon fill="#F8EBCB" points="40,124 32,128 32,125 40,121 		"/>
		<polygon fill="#F8EBCB" points="40,121 46,124 46,106 40,103 		"/>
		<g opacity="0.3">
			<polygon fill="#F8EBCB" points="32,104 32,106 34,105 34,103 			"/>
			<polygon fill="#F8EBCB" points="32,110 32,112 34,111 34,109 			"/>
			<polygon fill="#F8EBCB" points="33,106.5 33,108.5 36,107 36,105 			"/>
			<polygon fill="#F8EBCB" points="33,100.5 33,102.5 36,101 34,100 			"/>
			<polygon fill="#F8EBCB" points="33,112.5 33,114.5 36,113 36,111 			"/>
			<polygon fill="#F8EBCB" points="33,118.5 33,120.5 36,119 36,117 			"/>
			<polygon fill="#F8EBCB" points="37,104.5 37,106.5 40,105 40,103 			"/>
			<polygon fill="#F8EBCB" points="37,110.5 37,112.5 40,111 40,109 			"/>
			<polygon fill="#F8EBCB" points="37,116.5 37,118.5 40,117 40,115 			"/>
			<polygon fill="#F8EBCB" points="32,116 32,118 34,117 34,115 			"/>
			<polygon fill="#F8EBCB" points="32,122 32,124 34,123 34,121 			"/>
			<polygon fill="#F8EBCB" points="35,102.5 35,104.5 38,103 38,102 37,101.5 			"/>
			<polygon fill="#F8EBCB" points="35,108.5 35,110.5 38,109 38,107 			"/>
			<polygon fill="#F8EBCB" points="35,114.5 35,116.5 38,115 38,113 			"/>
			<polygon fill="#F8EBCB" points="35,120.5 35,122.5 38,121 38,119 			"/>
			<polygon fill="#F8EBCB" points="39,118.5 39,120.5 40,120 40,118 			"/>
			<polygon fill="#F8EBCB" points="39,112.5 39,114.5 40,114 40,112 			"/>
			<polygon fill="#F8EBCB" points="39,106.5 39,108.5 40,108 40,106 			"/>
		</g>
		<polygon opacity="0.39" points="40,124 32,128 32,99 40,103 		"/>
		<path opacity="0.15" d="M46,108v-1l-1-0.5l-1-0.5l-3-1.5v16l3,1.5l1,0.5l1,0.5v-1l-1-0.5v-14L46,108z M44,121l-2-1v-14l2,1V121z"
			/>
		<polygon fill="#3399CC" points="42,106 42,113 44,114 44,107 		"/>
		<polygon opacity="0.15" points="44,108 42,107 42,106 44,107 		"/>
		<polygon fill="#3399CC" points="43,106.5 43,113.5 44,114 44,107 		"/>
		<polygon opacity="0.15" points="44,108 43,107.5 43,106.5 44,107 		"/>
		<polygon opacity="0.15" points="46,109 40,106 40,103 46,106 		"/>
		<polygon opacity="0.15" points="46,107 40,104 40,103 46,106 		"/>
		<polygon opacity="0.06" points="40,121 46,124 46,106 40,103 		"/>
		<g>
			<g>
				<polygon fill="#BAA794" points="46,135 32,128 32,127 34,126 34,125 36,124 36,123 40,121 46,124 				"/>
				<g opacity="0.3">
					<polygon opacity="0.3" points="46,128 36,123 36,124 46,129 					"/>
					<polygon opacity="0.3" points="46,131 34,125 34,126 46,132 					"/>
					<polygon opacity="0.3" points="46,134 32,127 32,128 46,135 					"/>
				</g>
				<g>
					<polygon opacity="0.06" points="46,128 36,123 36,124 46,129 					"/>
					<polygon opacity="0.06" points="46,131 34,125 34,126 46,132 					"/>
					<polygon opacity="0.06" points="46,134 32,127 32,128 46,135 					"/>
				</g>
			</g>
			<polygon fill="#2D3134" points="42,122 40,123 46,126 46,124 			"/>
		</g>
	</g>
	<g>
		<polygon fill="#762C07" points="96,110 48,134 48,62 72,26 96,38 		"/>
		<g opacity="0.3">
			<polygon fill="#F8EBCB" points="52,128 49,129.5 49,131.5 52,130 			"/>
			<polygon fill="#F8EBCB" points="56,126 53,127.5 53,129.5 56,128 			"/>
			<polygon fill="#F8EBCB" points="60,124 57,125.5 57,127.5 60,126 			"/>
			<polygon fill="#F8EBCB" points="64,122 61,123.5 61,125.5 64,124 			"/>
			<polygon fill="#F8EBCB" points="68,120 65,121.5 65,123.5 68,122 			"/>
			<polygon fill="#F8EBCB" points="72,118 69,119.5 69,121.5 72,120 			"/>
			<polygon fill="#F8EBCB" points="76,116 73,117.5 73,119.5 76,118 			"/>
			<polygon fill="#F8EBCB" points="80,114 77,115.5 77,117.5 80,116 			"/>
			<polygon fill="#F8EBCB" points="84,112 81,113.5 81,115.5 84,114 			"/>
			<polygon fill="#F8EBCB" points="88,110 85,111.5 85,113.5 88,112 			"/>
			<polygon fill="#F8EBCB" points="92,108 89,109.5 89,111.5 92,110 			"/>
			<polygon fill="#F8EBCB" points="96,106 93,107.5 93,109.5 96,108 			"/>
			<polygon fill="#F8EBCB" points="50,126 48,127 48,129 50,128 			"/>
			<polygon fill="#F8EBCB" points="54,124 51,125.5 51,127.5 54,126 			"/>
			<polygon fill="#F8EBCB" points="58,122 55,123.5 55,125.5 58,124 			"/>
			<polygon fill="#F8EBCB" points="62,120 59,121.5 59,123.5 62,122 			"/>
			<polygon fill="#F8EBCB" points="66,118 63,119.5 63,121.5 66,120 			"/>
			<polygon fill="#F8EBCB" points="70,116 67,117.5 67,119.5 70,118 			"/>
			<polygon fill="#F8EBCB" points="74,114 71,115.5 71,117.5 74,116 			"/>
			<polygon fill="#F8EBCB" points="78,112 75,113.5 75,115.5 78,114 			"/>
			<polygon fill="#F8EBCB" points="82,110 79,111.5 79,113.5 82,112 			"/>
			<polygon fill="#F8EBCB" points="86,108 83,109.5 83,111.5 86,110 			"/>
			<polygon fill="#F8EBCB" points="90,106 87,107.5 87,109.5 90,108 			"/>
			<polygon fill="#F8EBCB" points="94,104 91,105.5 91,107.5 94,106 			"/>
			<polygon fill="#F8EBCB" points="96,103 95,103.5 95,105.5 96,105 			"/>
			<polygon fill="#F8EBCB" points="52,122 49,123.5 49,125.5 52,124 			"/>
			<polygon fill="#F8EBCB" points="56,120 53,121.5 53,123.5 56,122 			"/>
			<polygon fill="#F8EBCB" points="60,118 57,119.5 57,121.5 60,120 			"/>
			<polygon fill="#F8EBCB" points="64,116 61,117.5 61,119.5 64,118 			"/>
			<polygon fill="#F8EBCB" points="68,114 65,115.5 65,117.5 68,116 			"/>
			<polygon fill="#F8EBCB" points="72,112 69,113.5 69,115.5 72,114 			"/>
			<polygon fill="#F8EBCB" points="76,110 73,111.5 73,113.5 76,112 			"/>
			<polygon fill="#F8EBCB" points="80,108 77,109.5 77,111.5 80,110 			"/>
			<polygon fill="#F8EBCB" points="84,106 81,107.5 81,109.5 84,108 			"/>
			<polygon fill="#F8EBCB" points="88,104 85,105.5 85,107.5 88,106 			"/>
			<polygon fill="#F8EBCB" points="92,102 89,103.5 89,105.5 92,104 			"/>
			<polygon fill="#F8EBCB" points="96,100 93,101.5 93,103.5 96,102 			"/>
			<polygon fill="#F8EBCB" points="50,120 48,121 48,123 50,122 			"/>
			<polygon fill="#F8EBCB" points="54,118 51,119.5 51,121.5 54,120 			"/>
			<polygon fill="#F8EBCB" points="58,116 55,117.5 55,119.5 58,118 			"/>
			<polygon fill="#F8EBCB" points="62,114 59,115.5 59,117.5 62,116 			"/>
			<polygon fill="#F8EBCB" points="66,112 63,113.5 63,115.5 66,114 			"/>
			<polygon fill="#F8EBCB" points="70,110 67,111.5 67,113.5 70,112 			"/>
			<polygon fill="#F8EBCB" points="74,108 71,109.5 71,111.5 74,110 			"/>
			<polygon fill="#F8EBCB" points="78,106 75,107.5 75,109.5 78,108 			"/>
			<polygon fill="#F8EBCB" points="82,104 79,105.5 79,107.5 82,106 			"/>
			<polygon fill="#F8EBCB" points="86,102 83,103.5 83,105.5 86,104 			"/>
			<polygon fill="#F8EBCB" points="90,100 87,101.5 87,103.5 90,102 			"/>
			<polygon fill="#F8EBCB" points="94,98 91,99.5 91,101.5 94,100 			"/>
			<polygon fill="#F8EBCB" points="96,97 95,97.5 95,99.5 96,99 			"/>
			<polygon fill="#F8EBCB" points="52,116 49,117.5 49,119.5 52,118 			"/>
			<polygon fill="#F8EBCB" points="56,114 53,115.5 53,117.5 56,116 			"/>
			<polygon fill="#F8EBCB" points="60,112 57,113.5 57,115.5 60,114 			"/>
			<polygon fill="#F8EBCB" points="64,110 61,111.5 61,113.5 64,112 			"/>
			<polygon fill="#F8EBCB" points="68,108 65,109.5 65,111.5 68,110 			"/>
			<polygon fill="#F8EBCB" points="72,106 69,107.5 69,109.5 72,108 			"/>
			<polygon fill="#F8EBCB" points="76,104 73,105.5 73,107.5 76,106 			"/>
			<polygon fill="#F8EBCB" points="80,102 77,103.5 77,105.5 80,104 			"/>
			<polygon fill="#F8EBCB" points="84,100 81,101.5 81,103.5 84,102 			"/>
			<polygon fill="#F8EBCB" points="88,98 85,99.5 85,101.5 88,100 			"/>
			<polygon fill="#F8EBCB" points="92,96 89,97.5 89,99.5 92,98 			"/>
			<polygon fill="#F8EBCB" points="96,94 93,95.5 93,97.5 96,96 			"/>
			<polygon fill="#F8EBCB" points="50,114 48,115 48,117 50,116 			"/>
			<polygon fill="#F8EBCB" points="54,112 51,113.5 51,115.5 54,114 			"/>
			<polygon fill="#F8EBCB" points="58,110 55,111.5 55,113.5 58,112 			"/>
			<polygon fill="#F8EBCB" points="62,108 59,109.5 59,111.5 62,110 			"/>
			<polygon fill="#F8EBCB" points="66,106 63,107.5 63,109.5 66,108 			"/>
			<polygon fill="#F8EBCB" points="70,104 67,105.5 67,107.5 70,106 			"/>
			<polygon fill="#F8EBCB" points="74,102 71,103.5 71,105.5 74,104 			"/>
			<polygon fill="#F8EBCB" points="78,100 75,101.5 75,103.5 78,102 			"/>
			<polygon fill="#F8EBCB" points="82,98 79,99.5 79,101.5 82,100 			"/>
			<polygon fill="#F8EBCB" points="86,96 83,97.5 83,99.5 86,98 			"/>
			<polygon fill="#F8EBCB" points="90,94 87,95.5 87,97.5 90,96 			"/>
			<polygon fill="#F8EBCB" points="94,92 91,93.5 91,95.5 94,94 			"/>
			<polygon fill="#F8EBCB" points="96,91 95,91.5 95,93.5 96,93 			"/>
			<polygon fill="#F8EBCB" points="52,110 49,111.5 49,113.5 52,112 			"/>
			<polygon fill="#F8EBCB" points="56,108 53,109.5 53,111.5 56,110 			"/>
			<polygon fill="#F8EBCB" points="60,106 57,107.5 57,109.5 60,108 			"/>
			<polygon fill="#F8EBCB" points="64,104 61,105.5 61,107.5 64,106 			"/>
			<polygon fill="#F8EBCB" points="68,102 65,103.5 65,105.5 68,104 			"/>
			<polygon fill="#F8EBCB" points="72,100 69,101.5 69,103.5 72,102 			"/>
			<polygon fill="#F8EBCB" points="76,98 73,99.5 73,101.5 76,100 			"/>
			<polygon fill="#F8EBCB" points="80,96 77,97.5 77,99.5 80,98 			"/>
			<polygon fill="#F8EBCB" points="84,94 81,95.5 81,97.5 84,96 			"/>
			<polygon fill="#F8EBCB" points="88,92 85,93.5 85,95.5 88,94 			"/>
			<polygon fill="#F8EBCB" points="92,90 89,91.5 89,93.5 92,92 			"/>
			<polygon fill="#F8EBCB" points="96,88 93,89.5 93,91.5 96,90 			"/>
			<polygon fill="#F8EBCB" points="50,108 48,109 48,111 50,110 			"/>
			<polygon fill="#F8EBCB" points="54,106 51,107.5 51,109.5 54,108 			"/>
			<polygon fill="#F8EBCB" points="58,104 55,105.5 55,107.5 58,106 			"/>
			<polygon fill="#F8EBCB" points="62,102 59,103.5 59,105.5 62,104 			"/>
			<polygon fill="#F8EBCB" points="66,100 63,101.5 63,103.5 66,102 			"/>
			<polygon fill="#F8EBCB" points="70,98 67,99.5 67,101.5 70,100 			"/>
			<polygon fill="#F8EBCB" points="74,96 71,97.5 71,99.5 74,98 			"/>
			<polygon fill="#F8EBCB" points="78,94 75,95.5 75,97.5 78,96 			"/>
			<polygon fill="#F8EBCB" points="82,92 79,93.5 79,95.5 82,94 			"/>
			<polygon fill="#F8EBCB" points="86,90 83,91.5 83,93.5 86,92 			"/>
			<polygon fill="#F8EBCB" points="90,88 87,89.5 87,91.5 90,90 			"/>
			<polygon fill="#F8EBCB" points="94,86 91,87.5 91,89.5 94,88 			"/>
			<polygon fill="#F8EBCB" points="96,85 95,85.5 95,87.5 96,87 			"/>
			<polygon fill="#F8EBCB" points="52,104 49,105.5 49,107.5 52,106 			"/>
			<polygon fill="#F8EBCB" points="56,102 53,103.5 53,105.5 56,104 			"/>
			<polygon fill="#F8EBCB" points="60,100 57,101.5 57,103.5 60,102 			"/>
			<polygon fill="#F8EBCB" points="64,98 61,99.5 61,101.5 64,100 			"/>
			<polygon fill="#F8EBCB" points="68,96 65,97.5 65,99.5 68,98 			"/>
			<polygon fill="#F8EBCB" points="72,94 69,95.5 69,97.5 72,96 			"/>
			<polygon fill="#F8EBCB" points="76,92 73,93.5 73,95.5 76,94 			"/>
			<polygon fill="#F8EBCB" points="80,90 77,91.5 77,93.5 80,92 			"/>
			<polygon fill="#F8EBCB" points="84,88 81,89.5 81,91.5 84,90 			"/>
			<polygon fill="#F8EBCB" points="88,86 85,87.5 85,89.5 88,88 			"/>
			<polygon fill="#F8EBCB" points="92,84 89,85.5 89,87.5 92,86 			"/>
			<polygon fill="#F8EBCB" points="96,82 93,83.5 93,85.5 96,84 			"/>
			<polygon fill="#F8EBCB" points="50,102 48,103 48,105 50,104 			"/>
			<polygon fill="#F8EBCB" points="54,100 51,101.5 51,103.5 54,102 			"/>
			<polygon fill="#F8EBCB" points="58,98 55,99.5 55,101.5 58,100 			"/>
			<polygon fill="#F8EBCB" points="62,96 59,97.5 59,99.5 62,98 			"/>
			<polygon fill="#F8EBCB" points="66,94 63,95.5 63,97.5 66,96 			"/>
			<polygon fill="#F8EBCB" points="70,92 67,93.5 67,95.5 70,94 			"/>
			<polygon fill="#F8EBCB" points="74,90 71,91.5 71,93.5 74,92 			"/>
			<polygon fill="#F8EBCB" points="78,88 75,89.5 75,91.5 78,90 			"/>
			<polygon fill="#F8EBCB" points="82,86 79,87.5 79,89.5 82,88 			"/>
			<polygon fill="#F8EBCB" points="86,84 83,85.5 83,87.5 86,86 			"/>
			<polygon fill="#F8EBCB" points="90,82 87,83.5 87,85.5 90,84 			"/>
			<polygon fill="#F8EBCB" points="94,80 91,81.5 91,83.5 94,82 			"/>
			<polygon fill="#F8EBCB" points="96,79 95,79.5 95,81.5 96,81 			"/>
			<polygon fill="#F8EBCB" points="52,98 49,99.5 49,101.5 52,100 			"/>
			<polygon fill="#F8EBCB" points="56,96 53,97.5 53,99.5 56,98 			"/>
			<polygon fill="#F8EBCB" points="60,94 57,95.5 57,97.5 60,96 			"/>
			<polygon fill="#F8EBCB" points="64,92 61,93.5 61,95.5 64,94 			"/>
			<polygon fill="#F8EBCB" points="68,90 65,91.5 65,93.5 68,92 			"/>
			<polygon fill="#F8EBCB" points="72,88 69,89.5 69,91.5 72,90 			"/>
			<polygon fill="#F8EBCB" points="76,86 73,87.5 73,89.5 76,88 			"/>
			<polygon fill="#F8EBCB" points="80,84 77,85.5 77,87.5 80,86 			"/>
			<polygon fill="#F8EBCB" points="84,82 81,83.5 81,85.5 84,84 			"/>
			<polygon fill="#F8EBCB" points="88,80 85,81.5 85,83.5 88,82 			"/>
			<polygon fill="#F8EBCB" points="92,78 89,79.5 89,81.5 92,80 			"/>
			<polygon fill="#F8EBCB" points="96,76 93,77.5 93,79.5 96,78 			"/>
			<polygon fill="#F8EBCB" points="50,96 48,97 48,99 50,98 			"/>
			<polygon fill="#F8EBCB" points="54,94 51,95.5 51,97.5 54,96 			"/>
			<polygon fill="#F8EBCB" points="58,92 55,93.5 55,95.5 58,94 			"/>
			<polygon fill="#F8EBCB" points="62,90 59,91.5 59,93.5 62,92 			"/>
			<polygon fill="#F8EBCB" points="66,88 63,89.5 63,91.5 66,90 			"/>
			<polygon fill="#F8EBCB" points="70,86 67,87.5 67,89.5 70,88 			"/>
			<polygon fill="#F8EBCB" points="74,84 71,85.5 71,87.5 74,86 			"/>
			<polygon fill="#F8EBCB" points="78,82 75,83.5 75,85.5 78,84 			"/>
			<polygon fill="#F8EBCB" points="82,80 79,81.5 79,83.5 82,82 			"/>
			<polygon fill="#F8EBCB" points="86,78 83,79.5 83,81.5 86,80 			"/>
			<polygon fill="#F8EBCB" points="90,76 87,77.5 87,79.5 90,78 			"/>
			<polygon fill="#F8EBCB" points="94,74 91,75.5 91,77.5 94,76 			"/>
			<polygon fill="#F8EBCB" points="96,73 95,73.5 95,75.5 96,75 			"/>
			<polygon fill="#F8EBCB" points="52,92 49,93.5 49,95.5 52,94 			"/>
			<polygon fill="#F8EBCB" points="56,90 53,91.5 53,93.5 56,92 			"/>
			<polygon fill="#F8EBCB" points="60,88 57,89.5 57,91.5 60,90 			"/>
			<polygon fill="#F8EBCB" points="64,86 61,87.5 61,89.5 64,88 			"/>
			<polygon fill="#F8EBCB" points="68,84 65,85.5 65,87.5 68,86 			"/>
			<polygon fill="#F8EBCB" points="72,82 69,83.5 69,85.5 72,84 			"/>
			<polygon fill="#F8EBCB" points="76,80 73,81.5 73,83.5 76,82 			"/>
			<polygon fill="#F8EBCB" points="80,78 77,79.5 77,81.5 80,80 			"/>
			<polygon fill="#F8EBCB" points="84,76 81,77.5 81,79.5 84,78 			"/>
			<polygon fill="#F8EBCB" points="88,74 85,75.5 85,77.5 88,76 			"/>
			<polygon fill="#F8EBCB" points="92,72 89,73.5 89,75.5 92,74 			"/>
			<polygon fill="#F8EBCB" points="96,70 93,71.5 93,73.5 96,72 			"/>
			<polygon fill="#F8EBCB" points="50,90 48,91 48,93 50,92 			"/>
			<polygon fill="#F8EBCB" points="54,88 51,89.5 51,91.5 54,90 			"/>
			<polygon fill="#F8EBCB" points="58,86 55,87.5 55,89.5 58,88 			"/>
			<polygon fill="#F8EBCB" points="62,84 59,85.5 59,87.5 62,86 			"/>
			<polygon fill="#F8EBCB" points="66,82 63,83.5 63,85.5 66,84 			"/>
			<polygon fill="#F8EBCB" points="70,80 67,81.5 67,83.5 70,82 			"/>
			<polygon fill="#F8EBCB" points="74,78 71,79.5 71,81.5 74,80 			"/>
			<polygon fill="#F8EBCB" points="78,76 75,77.5 75,79.5 78,78 			"/>
			<polygon fill="#F8EBCB" points="82,74 79,75.5 79,77.5 82,76 			"/>
			<polygon fill="#F8EBCB" points="86,72 83,73.5 83,75.5 86,74 			"/>
			<polygon fill="#F8EBCB" points="90,70 87,71.5 87,73.5 90,72 			"/>
			<polygon fill="#F8EBCB" points="94,68 91,69.5 91,71.5 94,70 			"/>
			<polygon fill="#F8EBCB" points="96,67 95,67.5 95,69.5 96,69 			"/>
			<polygon fill="#F8EBCB" points="52,86 49,87.5 49,89.5 52,88 			"/>
			<polygon fill="#F8EBCB" points="56,84 53,85.5 53,87.5 56,86 			"/>
			<polygon fill="#F8EBCB" points="60,82 57,83.5 57,85.5 60,84 			"/>
			<polygon fill="#F8EBCB" points="64,80 61,81.5 61,83.5 64,82 			"/>
			<polygon fill="#F8EBCB" points="68,78 65,79.5 65,81.5 68,80 			"/>
			<polygon fill="#F8EBCB" points="72,76 69,77.5 69,79.5 72,78 			"/>
			<polygon fill="#F8EBCB" points="76,74 73,75.5 73,77.5 76,76 			"/>
			<polygon fill="#F8EBCB" points="80,72 77,73.5 77,75.5 80,74 			"/>
			<polygon fill="#F8EBCB" points="84,70 81,71.5 81,73.5 84,72 			"/>
			<polygon fill="#F8EBCB" points="88,68 85,69.5 85,71.5 88,70 			"/>
			<polygon fill="#F8EBCB" points="92,66 89,67.5 89,69.5 92,68 			"/>
			<polygon fill="#F8EBCB" points="96,64 93,65.5 93,67.5 96,66 			"/>
			<polygon fill="#F8EBCB" points="50,84 48,85 48,87 50,86 			"/>
			<polygon fill="#F8EBCB" points="54,82 51,83.5 51,85.5 54,84 			"/>
			<polygon fill="#F8EBCB" points="58,80 55,81.5 55,83.5 58,82 			"/>
			<polygon fill="#F8EBCB" points="62,78 59,79.5 59,81.5 62,80 			"/>
			<polygon fill="#F8EBCB" points="66,76 63,77.5 63,79.5 66,78 			"/>
			<polygon fill="#F8EBCB" points="70,74 67,75.5 67,77.5 70,76 			"/>
			<polygon fill="#F8EBCB" points="74,72 71,73.5 71,75.5 74,74 			"/>
			<polygon fill="#F8EBCB" points="78,70 75,71.5 75,73.5 78,72 			"/>
			<polygon fill="#F8EBCB" points="82,68 79,69.5 79,71.5 82,70 			"/>
			<polygon fill="#F8EBCB" points="86,66 83,67.5 83,69.5 86,68 			"/>
			<polygon fill="#F8EBCB" points="90,64 87,65.5 87,67.5 90,66 			"/>
			<polygon fill="#F8EBCB" points="94,62 91,63.5 91,65.5 94,64 			"/>
			<polygon fill="#F8EBCB" points="96,61 95,61.5 95,63.5 96,63 			"/>
			<polygon fill="#F8EBCB" points="52,80 49,81.5 49,83.5 52,82 			"/>
			<polygon fill="#F8EBCB" points="56,78 53,79.5 53,81.5 56,80 			"/>
			<polygon fill="#F8EBCB" points="60,76 57,77.5 57,79.5 60,78 			"/>
			<polygon fill="#F8EBCB" points="64,74 61,75.5 61,77.5 64,76 			"/>
			<polygon fill="#F8EBCB" points="68,72 65,73.5 65,75.5 68,74 			"/>
			<polygon fill="#F8EBCB" points="72,70 69,71.5 69,73.5 72,72 			"/>
			<polygon fill="#F8EBCB" points="76,68 73,69.5 73,71.5 76,70 			"/>
			<polygon fill="#F8EBCB" points="80,66 77,67.5 77,69.5 80,68 			"/>
			<polygon fill="#F8EBCB" points="84,64 81,65.5 81,67.5 84,66 			"/>
			<polygon fill="#F8EBCB" points="88,62 85,63.5 85,65.5 88,64 			"/>
			<polygon fill="#F8EBCB" points="92,60 89,61.5 89,63.5 92,62 			"/>
			<polygon fill="#F8EBCB" points="96,58 93,59.5 93,61.5 96,60 			"/>
			<polygon fill="#F8EBCB" points="50,78 48,79 48,81 50,80 			"/>
			<polygon fill="#F8EBCB" points="54,76 51,77.5 51,79.5 54,78 			"/>
			<polygon fill="#F8EBCB" points="58,74 55,75.5 55,77.5 58,76 			"/>
			<polygon fill="#F8EBCB" points="62,72 59,73.5 59,75.5 62,74 			"/>
			<polygon fill="#F8EBCB" points="66,70 63,71.5 63,73.5 66,72 			"/>
			<polygon fill="#F8EBCB" points="70,68 67,69.5 67,71.5 70,70 			"/>
			<polygon fill="#F8EBCB" points="74,66 71,67.5 71,69.5 74,68 			"/>
			<polygon fill="#F8EBCB" points="78,64 75,65.5 75,67.5 78,66 			"/>
			<polygon fill="#F8EBCB" points="82,62 79,63.5 79,65.5 82,64 			"/>
			<polygon fill="#F8EBCB" points="86,60 83,61.5 83,63.5 86,62 			"/>
			<polygon fill="#F8EBCB" points="90,58 87,59.5 87,61.5 90,60 			"/>
			<polygon fill="#F8EBCB" points="94,56 91,57.5 91,59.5 94,58 			"/>
			<polygon fill="#F8EBCB" points="96,55 95,55.5 95,57.5 96,57 			"/>
			<polygon fill="#F8EBCB" points="52,74 49,75.5 49,77.5 52,76 			"/>
			<polygon fill="#F8EBCB" points="56,72 53,73.5 53,75.5 56,74 			"/>
			<polygon fill="#F8EBCB" points="60,70 57,71.5 57,73.5 60,72 			"/>
			<polygon fill="#F8EBCB" points="64,68 61,69.5 61,71.5 64,70 			"/>
			<polygon fill="#F8EBCB" points="68,66 65,67.5 65,69.5 68,68 			"/>
			<polygon fill="#F8EBCB" points="72,64 69,65.5 69,67.5 72,66 			"/>
			<polygon fill="#F8EBCB" points="76,62 73,63.5 73,65.5 76,64 			"/>
			<polygon fill="#F8EBCB" points="80,60 77,61.5 77,63.5 80,62 			"/>
			<polygon fill="#F8EBCB" points="84,58 81,59.5 81,61.5 84,60 			"/>
			<polygon fill="#F8EBCB" points="88,56 85,57.5 85,59.5 88,58 			"/>
			<polygon fill="#F8EBCB" points="92,54 89,55.5 89,57.5 92,56 			"/>
			<polygon fill="#F8EBCB" points="96,52 93,53.5 93,55.5 96,54 			"/>
			<polygon fill="#F8EBCB" points="50,72 48,73 48,75 50,74 			"/>
			<polygon fill="#F8EBCB" points="54,70 51,71.5 51,73.5 54,72 			"/>
			<polygon fill="#F8EBCB" points="58,68 55,69.5 55,71.5 58,70 			"/>
			<polygon fill="#F8EBCB" points="62,66 59,67.5 59,69.5 62,68 			"/>
			<polygon fill="#F8EBCB" points="66,64 63,65.5 63,67.5 66,66 			"/>
			<polygon fill="#F8EBCB" points="70,62 67,63.5 67,65.5 70,64 			"/>
			<polygon fill="#F8EBCB" points="74,60 71,61.5 71,63.5 74,62 			"/>
			<polygon fill="#F8EBCB" points="78,58 75,59.5 75,61.5 78,60 			"/>
			<polygon fill="#F8EBCB" points="82,56 79,57.5 79,59.5 82,58 			"/>
			<polygon fill="#F8EBCB" points="86,54 83,55.5 83,57.5 86,56 			"/>
			<polygon fill="#F8EBCB" points="90,52 87,53.5 87,55.5 90,54 			"/>
			<polygon fill="#F8EBCB" points="94,50 91,51.5 91,53.5 94,52 			"/>
			<polygon fill="#F8EBCB" points="96,49 95,49.5 95,51.5 96,51 			"/>
			<polygon fill="#F8EBCB" points="52,68 49,69.5 49,71.5 52,70 			"/>
			<polygon fill="#F8EBCB" points="56,66 53,67.5 53,69.5 56,68 			"/>
			<polygon fill="#F8EBCB" points="60,64 57,65.5 57,67.5 60,66 			"/>
			<polygon fill="#F8EBCB" points="64,62 61,63.5 61,65.5 64,64 			"/>
			<polygon fill="#F8EBCB" points="68,60 65,61.5 65,63.5 68,62 			"/>
			<polygon fill="#F8EBCB" points="72,58 69,59.5 69,61.5 72,60 			"/>
			<polygon fill="#F8EBCB" points="76,56 73,57.5 73,59.5 76,58 			"/>
			<polygon fill="#F8EBCB" points="80,54 77,55.5 77,57.5 80,56 			"/>
			<polygon fill="#F8EBCB" points="84,52 81,53.5 81,55.5 84,54 			"/>
			<polygon fill="#F8EBCB" points="88,50 85,51.5 85,53.5 88,52 			"/>
			<polygon fill="#F8EBCB" points="92,48 89,49.5 89,51.5 92,50 			"/>
			<polygon fill="#F8EBCB" points="96,46 93,47.5 93,49.5 96,48 			"/>
			<polygon fill="#F8EBCB" points="50,66 48,67 48,69 50,68 			"/>
			<polygon fill="#F8EBCB" points="54,64 51,65.5 51,67.5 54,66 			"/>
			<polygon fill="#F8EBCB" points="58,62 55,63.5 55,65.5 58,64 			"/>
			<polygon fill="#F8EBCB" points="62,60 59,61.5 59,63.5 62,62 			"/>
			<polygon fill="#F8EBCB" points="66,58 63,59.5 63,61.5 66,60 			"/>
			<polygon fill="#F8EBCB" points="70,56 67,57.5 67,59.5 70,58 			"/>
			<polygon fill="#F8EBCB" points="74,54 71,55.5 71,57.5 74,56 			"/>
			<polygon fill="#F8EBCB" points="78,52 75,53.5 75,55.5 78,54 			"/>
			<polygon fill="#F8EBCB" points="82,50 79,51.5 79,53.5 82,52 			"/>
			<polygon fill="#F8EBCB" points="86,48 83,49.5 83,51.5 86,50 			"/>
			<polygon fill="#F8EBCB" points="90,46 87,47.5 87,49.5 90,48 			"/>
			<polygon fill="#F8EBCB" points="94,44 91,45.5 91,47.5 94,46 			"/>
			<polygon fill="#F8EBCB" points="96,43 95,43.5 95,45.5 96,45 			"/>
			<polygon fill="#F8EBCB" points="52,62 49,63.5 49,65.5 52,64 			"/>
			<polygon fill="#F8EBCB" points="56,60 53,61.5 53,63.5 56,62 			"/>
			<polygon fill="#F8EBCB" points="60,58 57,59.5 57,61.5 60,60 			"/>
			<polygon fill="#F8EBCB" points="64,56 61,57.5 61,59.5 64,58 			"/>
			<polygon fill="#F8EBCB" points="68,54 65,55.5 65,57.5 68,56 			"/>
			<polygon fill="#F8EBCB" points="72,52 69,53.5 69,55.5 72,54 			"/>
			<polygon fill="#F8EBCB" points="76,50 73,51.5 73,53.5 76,52 			"/>
			<polygon fill="#F8EBCB" points="80,48 77,49.5 77,51.5 80,50 			"/>
			<polygon fill="#F8EBCB" points="84,46 81,47.5 81,49.5 84,48 			"/>
			<polygon fill="#F8EBCB" points="88,44 85,45.5 85,47.5 88,46 			"/>
			<polygon fill="#F8EBCB" points="92,42 89,43.5 89,45.5 92,44 			"/>
			<polygon fill="#F8EBCB" points="96,40 93,41.5 93,43.5 96,42 			"/>
			<polygon fill="#F8EBCB" points="54,58 51,59.5 51,61.5 54,60 			"/>
			<polygon fill="#F8EBCB" points="58,56 55,57.5 55,59.5 58,58 			"/>
			<polygon fill="#F8EBCB" points="62,54 59,55.5 59,57.5 62,56 			"/>
			<polygon fill="#F8EBCB" points="66,52 63,53.5 63,55.5 66,54 			"/>
			<polygon fill="#F8EBCB" points="70,50 67,51.5 67,53.5 70,52 			"/>
			<polygon fill="#F8EBCB" points="74,48 71,49.5 71,51.5 74,50 			"/>
			<polygon fill="#F8EBCB" points="78,46 75,47.5 75,49.5 78,48 			"/>
			<polygon fill="#F8EBCB" points="82,44 79,45.5 79,47.5 82,46 			"/>
			<polygon fill="#F8EBCB" points="86,42 83,43.5 83,45.5 86,44 			"/>
			<polygon fill="#F8EBCB" points="90,40 87,41.5 87,43.5 90,42 			"/>
			<polygon fill="#F8EBCB" points="94,38 91,39.5 91,41.5 94,40 			"/>
			<polygon fill="#F8EBCB" points="96,37 95,37.5 95,39.5 96,39 			"/>
			<polygon fill="#F8EBCB" points="56,54 53,55.5 53,57.5 56,56 			"/>
			<polygon fill="#F8EBCB" points="60,52 57,53.5 57,55.5 60,54 			"/>
			<polygon fill="#F8EBCB" points="64,50 61,51.5 61,53.5 64,52 			"/>
			<polygon fill="#F8EBCB" points="68,48 65,49.5 65,51.5 68,50 			"/>
			<polygon fill="#F8EBCB" points="72,46 69,47.5 69,49.5 72,48 			"/>
			<polygon fill="#F8EBCB" points="76,44 73,45.5 73,47.5 76,46 			"/>
			<polygon fill="#F8EBCB" points="80,42 77,43.5 77,45.5 80,44 			"/>
			<polygon fill="#F8EBCB" points="84,40 81,41.5 81,43.5 84,42 			"/>
			<polygon fill="#F8EBCB" points="88,38 85,39.5 85,41.5 88,40 			"/>
			<polygon fill="#F8EBCB" points="91,36.5 89,37.5 89,39.5 92,38 			"/>
			<polygon fill="#F8EBCB" points="58,50 56,51 55,53.5 58,52 			"/>
			<polygon fill="#F8EBCB" points="62,48 59,49.5 59,51.5 62,50 			"/>
			<polygon fill="#F8EBCB" points="66,46 63,47.5 63,49.5 66,48 			"/>
			<polygon fill="#F8EBCB" points="70,44 67,45.5 67,47.5 70,46 			"/>
			<polygon fill="#F8EBCB" points="74,42 71,43.5 71,45.5 74,44 			"/>
			<polygon fill="#F8EBCB" points="78,40 75,41.5 75,43.5 78,42 			"/>
			<polygon fill="#F8EBCB" points="82,38 79,39.5 79,41.5 82,40 			"/>
			<polygon fill="#F8EBCB" points="86,36 83,37.5 83,39.5 86,38 			"/>
			<polygon fill="#F8EBCB" points="88,35 87,35.5 87,37.5 90,36 			"/>
			<polygon fill="#F8EBCB" points="60,46 59,46.5 57,49.5 60,48 			"/>
			<polygon fill="#F8EBCB" points="64,44 61,45.5 61,47.5 64,46 			"/>
			<polygon fill="#F8EBCB" points="68,42 65,43.5 65,45.5 68,44 			"/>
			<polygon fill="#F8EBCB" points="72,40 69,41.5 69,43.5 72,42 			"/>
			<polygon fill="#F8EBCB" points="76,38 73,39.5 73,41.5 76,40 			"/>
			<polygon fill="#F8EBCB" points="80,36 77,37.5 77,39.5 80,38 			"/>
			<polygon fill="#F8EBCB" points="84,34 81,35.5 81,37.5 84,36 			"/>
			<polygon fill="#F8EBCB" points="66,40 63,41.5 63,43.5 66,42 			"/>
			<polygon fill="#F8EBCB" points="70,38 67,39.5 67,41.5 70,40 			"/>
			<polygon fill="#F8EBCB" points="74,36 71,37.5 71,39.5 74,38 			"/>
			<polygon fill="#F8EBCB" points="78,34 75,35.5 75,37.5 78,36 			"/>
			<polygon fill="#F8EBCB" points="82,32 79,33.5 79,35.5 82,34 			"/>
			<polygon fill="#F8EBCB" points="68,36 65,37.5 65,39.5 68,38 			"/>
			<polygon fill="#F8EBCB" points="72,34 69,35.5 69,37.5 72,36 			"/>
			<polygon fill="#F8EBCB" points="76,32 73,33.5 73,35.5 76,34 			"/>
			<polygon fill="#F8EBCB" points="80,30 77,31.5 77,33.5 80,32 			"/>
			<polygon fill="#F8EBCB" points="70,32 67,33.5 67,35.5 70,34 			"/>
			<polygon fill="#F8EBCB" points="74,30 71,31.5 71,33.5 74,32 			"/>
			<polygon fill="#F8EBCB" points="77,28.5 75,29.5 75,31.5 78,30 			"/>
			<polygon fill="#F8EBCB" points="72,28 71,28.5 69,31.5 72,30 			"/>
		</g>
		<g opacity="0.3">
			<polygon fill="#F8EBCB" points="52,128 49,129.5 49,131.5 52,130 			"/>
			<polygon fill="#F8EBCB" points="96,106 93,107.5 93,109.5 96,108 			"/>
			<polygon fill="#F8EBCB" points="50,126 48,127 48,129 50,128 			"/>
			<polygon fill="#F8EBCB" points="96,103 95,103.5 95,105.5 96,105 			"/>
			<polygon fill="#F8EBCB" points="52,122 49,123.5 49,125.5 52,124 			"/>
			<polygon fill="#F8EBCB" points="96,100 93,101.5 93,103.5 96,102 			"/>
			<polygon fill="#F8EBCB" points="50,120 48,121 48,123 50,122 			"/>
			<polygon fill="#F8EBCB" points="96,97 95,97.5 95,99.5 96,99 			"/>
			<polygon fill="#F8EBCB" points="52,116 49,117.5 49,119.5 52,118 			"/>
			<polygon fill="#F8EBCB" points="96,94 93,95.5 93,97.5 96,96 			"/>
			<polygon fill="#F8EBCB" points="50,114 48,115 48,117 50,116 			"/>
			<polygon fill="#F8EBCB" points="96,91 95,91.5 95,93.5 96,93 			"/>
			<polygon fill="#F8EBCB" points="52,110 49,111.5 49,113.5 52,112 			"/>
			<polygon fill="#F8EBCB" points="96,88 93,89.5 93,91.5 96,90 			"/>
			<polygon fill="#F8EBCB" points="50,108 48,109 48,111 50,110 			"/>
			<polygon fill="#F8EBCB" points="96,85 95,85.5 95,87.5 96,87 			"/>
			<polygon fill="#F8EBCB" points="52,104 49,105.5 49,107.5 52,106 			"/>
			<polygon fill="#F8EBCB" points="96,82 93,83.5 93,85.5 96,84 			"/>
			<polygon fill="#F8EBCB" points="50,102 48,103 48,105 50,104 			"/>
			<polygon fill="#F8EBCB" points="96,79 95,79.5 95,81.5 96,81 			"/>
			<polygon fill="#F8EBCB" points="52,98 49,99.5 49,101.5 52,100 			"/>
			<polygon fill="#F8EBCB" points="96,76 93,77.5 93,79.5 96,78 			"/>
			<polygon fill="#F8EBCB" points="50,96 48,97 48,99 50,98 			"/>
			<polygon fill="#F8EBCB" points="96,73 95,73.5 95,75.5 96,75 			"/>
			<polygon fill="#F8EBCB" points="52,92 49,93.5 49,95.5 52,94 			"/>
			<polygon fill="#F8EBCB" points="96,70 93,71.5 93,73.5 96,72 			"/>
			<polygon fill="#F8EBCB" points="50,90 48,91 48,93 50,92 			"/>
			<polygon fill="#F8EBCB" points="96,67 95,67.5 95,69.5 96,69 			"/>
			<polygon fill="#F8EBCB" points="52,86 49,87.5 49,89.5 52,88 			"/>
			<polygon fill="#F8EBCB" points="96,64 93,65.5 93,67.5 96,66 			"/>
			<polygon fill="#F8EBCB" points="50,84 48,85 48,87 50,86 			"/>
			<polygon fill="#F8EBCB" points="96,61 95,61.5 95,63.5 96,63 			"/>
			<polygon fill="#F8EBCB" points="52,80 49,81.5 49,83.5 52,82 			"/>
			<polygon fill="#F8EBCB" points="96,58 93,59.5 93,61.5 96,60 			"/>
			<polygon fill="#F8EBCB" points="50,78 48,79 48,81 50,80 			"/>
			<polygon fill="#F8EBCB" points="96,55 95,55.5 95,57.5 96,57 			"/>
			<polygon fill="#F8EBCB" points="52,74 49,75.5 49,77.5 52,76 			"/>
			<polygon fill="#F8EBCB" points="96,52 93,53.5 93,55.5 96,54 			"/>
			<polygon fill="#F8EBCB" points="50,72 48,73 48,75 50,74 			"/>
			<polygon fill="#F8EBCB" points="96,49 95,49.5 95,51.5 96,51 			"/>
			<polygon fill="#F8EBCB" points="52,68 49,69.5 49,71.5 52,70 			"/>
			<polygon fill="#F8EBCB" points="96,46 93,47.5 93,49.5 96,48 			"/>
			<polygon fill="#F8EBCB" points="50,66 48,67 48,69 50,68 			"/>
			<polygon fill="#F8EBCB" points="96,43 95,43.5 95,45.5 96,45 			"/>
			<polygon fill="#F8EBCB" points="52,62 49,63.5 49,65.5 52,64 			"/>
			<polygon fill="#F8EBCB" points="96,40 93,41.5 93,43.5 96,42 			"/>
		</g>
		<g>
			<g>
				<polygon fill="#BAA794" points="68,91 59,95.5 59,82.5 68,78 				"/>
				<g>
					<polygon fill="#3399CC" points="60,83 60,94 63,92.5 63,81.5 					"/>
					<polygon opacity="0.2" fill="#FFFFFF" points="60,88 60,94 63,92.5 					"/>
					<polygon fill="#3399CC" points="64,81 64,92 67,90.5 67,79.5 					"/>
				</g>
				<polygon opacity="0.15" points="63,82.5 60,84 60,83 63,81.5 				"/>
				<polygon opacity="0.15" points="67,80.5 64,82 64,81 67,79.5 				"/>
				<polygon opacity="0.15" points="67,87.5 64,82 64,81 67,79.5 				"/>
				<polygon fill="#BAA794" points="67,83.5 60,87 60,86 67,82.5 				"/>
				<polygon fill="#BAA794" points="67,87.5 60,91 60,90 67,86.5 				"/>
			</g>
			<polygon fill="#F8EBCB" points="68,78 59,82.5 59,80.5 68,76 			"/>
			<polygon fill="#F8EBCB" points="68,92 59,96.5 59,95.5 68,91 			"/>
		</g>
		<g>
			<g>
				<polygon fill="#BAA794" points="85,82.5 76,87 76,74 85,69.5 				"/>
				<g>
					<polygon fill="#3399CC" points="77,74.5 77,85.5 80,84 80,73 					"/>
					<polygon opacity="0.2" fill="#FFFFFF" points="77,79.5 77,85.5 80,84 					"/>
					<polygon fill="#3399CC" points="81,72.5 81,83.5 84,82 84,71 					"/>
				</g>
				<polygon opacity="0.15" points="80,74 77,75.5 77,74.5 80,73 				"/>
				<polygon opacity="0.15" points="84,72 81,73.5 81,72.5 84,71 				"/>
				<polygon opacity="0.15" points="84,79 81,73.5 81,72.5 84,71 				"/>
				<polygon fill="#BAA794" points="84,75 77,78.5 77,77.5 84,74 				"/>
				<polygon fill="#BAA794" points="84,79 77,82.5 77,81.5 84,78 				"/>
			</g>
			<polygon fill="#F8EBCB" points="85,69.5 76,74 76,72 85,67.5 			"/>
			<polygon fill="#F8EBCB" points="85,83.5 76,88 76,87 85,82.5 			"/>
		</g>
		<g>
			<g>
				<polygon fill="#BAA794" points="68,71 59,75.5 59,62.5 68,58 				"/>
				<g>
					<polygon fill="#3399CC" points="60,63 60,74 63,72.5 63,61.5 					"/>
					<polygon opacity="0.2" fill="#FFFFFF" points="60,68 60,74 63,72.5 					"/>
					<polygon fill="#3399CC" points="64,61 64,72 67,70.5 67,59.5 					"/>
				</g>
				<polygon opacity="0.15" points="63,62.5 60,64 60,63 63,61.5 				"/>
				<polygon opacity="0.15" points="67,60.5 64,62 64,61 67,59.5 				"/>
				<polygon opacity="0.15" points="67,67.5 64,62 64,61 67,59.5 				"/>
				<polygon fill="#BAA794" points="67,63.5 60,67 60,66 67,62.5 				"/>
				<polygon fill="#BAA794" points="67,67.5 60,71 60,70 67,66.5 				"/>
			</g>
			<polygon fill="#F8EBCB" points="68,58 59,62.5 59,61.5 68,57 			"/>
			<polygon fill="#F8EBCB" points="68,72 59,76.5 59,75.5 68,71 			"/>
		</g>
		<g>
			<g>
				<polygon fill="#BAA794" points="85,62.5 76,67 76,54 85,49.5 				"/>
				<g>
					<polygon fill="#3399CC" points="77,54.5 77,65.5 80,64 80,53 					"/>
					<polygon opacity="0.2" fill="#FFFFFF" points="77,59.5 77,65.5 80,64 					"/>
					<polygon fill="#3399CC" points="81,52.5 81,63.5 84,62 84,51 					"/>
				</g>
				<polygon opacity="0.15" points="80,54 77,55.5 77,54.5 80,53 				"/>
				<polygon opacity="0.15" points="84,52 81,53.5 81,52.5 84,51 				"/>
				<polygon opacity="0.15" points="84,59 81,53.5 81,52.5 84,51 				"/>
				<polygon fill="#BAA794" points="84,55 77,58.5 77,57.5 84,54 				"/>
				<polygon fill="#BAA794" points="84,59 77,62.5 77,61.5 84,58 				"/>
			</g>
			<polygon fill="#F8EBCB" points="85,49.5 76,54 76,53 85,48.5 			"/>
			<polygon fill="#F8EBCB" points="85,63.5 76,68 76,67 85,62.5 			"/>
		</g>
		<g>
			<polygon fill="#BAA794" points="76,46 68,50 68,39 76,35 			"/>
			<g>
				<polygon fill="#3399CC" points="69,39.5 69,48.5 75,45.5 75,36.5 				"/>
			</g>
			<polygon opacity="0.15" points="75,37.5 69,40.5 69,39.5 75,36.5 			"/>
			<polygon opacity="0.15" points="75,44.5 69,40.5 69,39.5 75,36.5 			"/>
			<polygon fill="#BAA794" points="75,40.5 69,43.5 69,42.5 75,39.5 			"/>
		</g>
		<g>
			<g>
				<polygon fill="#BAA794" points="68,112 59,116.5 59,103.5 68,99 				"/>
				<g>
					<polygon fill="#3399CC" points="60,104 60,115 63,113.5 63,102.5 					"/>
					<polygon opacity="0.2" fill="#FFFFFF" points="60,109 60,115 63,113.5 					"/>
					<polygon fill="#3399CC" points="64,102 64,113 67,111.5 67,100.5 					"/>
				</g>
				<polygon opacity="0.15" points="63,103.5 60,105 60,104 63,102.5 				"/>
				<polygon opacity="0.15" points="67,101.5 64,103 64,102 67,100.5 				"/>
				<polygon opacity="0.15" points="67,108.5 64,103 64,102 67,100.5 				"/>
				<polygon fill="#BAA794" points="67,104.5 60,108 60,107 67,103.5 				"/>
				<polygon fill="#BAA794" points="67,108.5 60,112 60,111 67,107.5 				"/>
			</g>
			<polygon fill="#F8EBCB" points="68,99 59,103.5 59,102.5 63,98.5 64,98 68,98 			"/>
			<polygon fill="#F8EBCB" points="68,113 59,117.5 59,116.5 68,112 			"/>
		</g>
		<g>
			<g>
				<polygon fill="#BAA794" points="85,103.5 76,108 76,95 85,90.5 				"/>
				<g>
					<polygon fill="#3399CC" points="77,95.5 77,106.5 80,105 80,94 					"/>
					<polygon opacity="0.2" fill="#FFFFFF" points="77,100.5 77,106.5 80,105 					"/>
					<polygon fill="#3399CC" points="81,93.5 81,104.5 84,103 84,92 					"/>
				</g>
				<polygon opacity="0.15" points="80,95 77,96.5 77,95.5 80,94 				"/>
				<polygon opacity="0.15" points="84,93 81,94.5 81,93.5 84,92 				"/>
				<polygon opacity="0.15" points="84,100 81,94.5 81,93.5 84,92 				"/>
				<polygon fill="#BAA794" points="84,96 77,99.5 77,98.5 84,95 				"/>
				<polygon fill="#BAA794" points="84,100 77,103.5 77,102.5 84,99 				"/>
			</g>
			<polygon fill="#F8EBCB" points="85,90.5 76,95 76,94 80,90 81,89.5 85,89.5 			"/>
			<polygon fill="#F8EBCB" points="85,104.5 76,109 76,108 85,103.5 			"/>
		</g>
		<polygon fill="#F8EBCB" points="96,112 48,136 48,133 96,109 		"/>
		<polygon fill="#F8EBCB" points="72,26 48,62 48,63 72,27 96,39 96,38 		"/>
		<polygon opacity="0.39" points="96,112 48,136 48,62 72,26 96,38 		"/>
	</g>
	<polygon fill="#2D3134" points="0,38 48,62 72,26 24,2 	"/>
	<polygon fill="#2D3134" points="48,14 96,38 72,26 24,2 	"/>
	<g>
		<polygon fill="#BAA794" points="15.8,37.3 22.7,27 29.9,30.6 23,40.9 		"/>
		<polygon fill="#3399CC" points="17.3,36.9 23.1,28.3 28.5,31 22.7,39.6 		"/>
		<polygon opacity="0.15" points="23,29.2 28,31.7 28.5,31 23.1,28.3 17.3,36.9 17.7,37.1 		"/>
		<polygon fill="#BAA794" points="26.9,33.9 20.9,30.9 20.9,31.9 26.9,34.9 		"/>
	</g>
	<g>
		<polygon fill="#BAA794" points="29.9,44.2 36.8,33.9 44,37.5 37.1,47.8 		"/>
		<polygon fill="#3399CC" points="31.4,43.9 37.1,35.2 42.5,37.9 36.8,46.6 		"/>
		<polygon opacity="0.15" points="37.1,36.1 42.1,38.6 42.5,37.9 37.1,35.2 31.4,43.9 31.8,44.1 		"/>
		<polygon fill="#BAA794" points="41,40.8 35,37.8 35,38.8 41,41.8 		"/>
	</g>
	<polygon opacity="0.06" points="0,38 48,62 72,26 24,2 	"/>
	<polygon opacity="0.2" fill="#FFFFFF" points="22.8,3.7 70.8,27.7 72,26 24,2 	"/>
</g>
</svg>
