<?xml version="1.0" encoding="utf-8"?>
<!-- Generator: Adobe Illustrator 18.1.0, SVG Export Plug-In . SVG Version: 6.00 Build 0)  -->
<svg version="1.1" id="Layer_1" xmlns="http://www.w3.org/2000/svg" xmlns:xlink="http://www.w3.org/1999/xlink" x="0px" y="0px"
	 viewBox="0 0 80 240" enable-background="new 0 0 80 240" xml:space="preserve">
<g>
	<path opacity="0.2" d="M59.7,230.1c17.2-9.6,4.2-17-11.8-24.6c-17.8-8.5-24.2-10.6-40.5-1.6c-13.9,7.6-1.6,14.9,14.6,22.5
		C40.5,235,47.5,236.9,59.7,230.1z"/>
	<path fill="#262626" d="M19,201.7c-3.4,2.5-6.8,4-9.8,5.6c-3,1.6-4.5,3.1-4.1,4.5c0.3,1.5,3,3.2,7.6,3c4.6-0.2,12-4.4,13.4-4.5
		c1.4-0.1,1.1,0.8,2.1,0.8c1,0,6.4-1,7-1.7c0.6-0.7-0.1-5.7-0.1-5.7L19,201.7z"/>
	<path opacity="0.5" d="M35.1,209.4c0.3-0.4,0.3-1.8,0.2-3.1c-1.3,1.2-3.5,1.9-5.7,2c-2.6,0.1-5.7,0.6-9.3,2.9s-16,4.2-14.6-1.4
		c-0.6,0.7-0.9,1.4-0.7,2.1c0.3,1.5,3,3.2,7.6,3s12-4.4,13.4-4.5c1.4-0.1,1.1,0.8,2.1,0.8C29.1,211.2,34.6,210.1,35.1,209.4z"/>
	<path fill="#656565" d="M21.2,123.1c-0.9,6.6-1.3,29.8-0.4,40.3c0.8,10.6,0.7,25.9-0.1,31.2c-0.6,3.9-2.5,6-2,7.4
		c0.5,1.5,5,4.6,10.2,5.2s7.2-0.2,7.9-2.2c0.6-2,2.8-23.5,3.5-37c0.6-12,1.7-45.1,1.7-45.1H21.2z"/>
	<path opacity="0.3" d="M21.2,123.1c-0.9,6.6-1.3,29.8-0.4,40.3c0.8,10.6,0.7,25.9-0.1,31.2c-0.6,3.9-2.5,6-2,7.4
		c0.5,1.5,5,4.6,10.2,5.2s7.2-0.2,7.9-2.2c0.6-2,2.8-23.5,3.5-37c0.6-12,1.7-45.1,1.7-45.1H21.2z"/>
	<path fill="#262626" d="M50,213.8c-0.8,2.3-4.3,8-5,9.4c-0.8,1.4-2.3,3.3-1.3,4.7s5.7,3.3,10.4,1c4.7-2.2,5.5-7.7,5.5-7.7h0.8
		c0,0,1-2.3,1-3.9c0-1.6-0.3-2.6-0.3-2.6L50,213.8z"/>
	<path opacity="0.5" d="M59.6,221.3h0.8c0,0,1-2.3,1-3.9c0-1.6-0.3-2.6-0.3-2.6l-0.1,0c-0.1,0.2-0.1,0.4-0.1,0.6
		c-0.2,1.3-2.5,8.3-3.8,10c-3.4,4.4-12.6,5.4-13.5,0.3c-0.3,0.8-0.4,1.6,0.1,2.2c1,1.5,5.7,3.3,10.4,1S59.6,221.3,59.6,221.3z"/>
	<path fill="#656565" d="M33,123.9c0.1,4.3,4.5,9.3,5.8,15.4c1.3,6.1,5.3,36.3,6.3,45.2c1.5,12.9,2.8,31.7,3.2,31.9
		c0.4,0.1,3.7-1.9,6.9-0.2c3.2,1.7,6.8,1,7.9,0.2s0.6-9.4,0.2-14.6s-1.9-43.6-1.8-48.8c0.1-5.2,1.8-19.3,1.4-22.6
		c-0.4-3.4-2.3-7.3-2.3-7.3L33,123.9z"/>
	<path opacity="0.15" d="M33,123.9c0.1,4.3,4.5,9.3,5.8,15.4c1.3,6.1,5.3,36.3,6.3,45.2c1.5,12.9,2.8,31.7,3.2,31.9
		c0.4,0.1,3.7-1.9,6.9-0.2c3.2,1.7,6.8,1,7.9,0.2s0.6-9.4,0.2-14.6s-1.9-43.6-1.8-48.8c0.1-5.2,1.8-19.3,1.4-22.6
		c-0.4-3.4-2.3-7.3-2.3-7.3L33,123.9z"/>
	<path fill="#656565" d="M22.9,76.6c-2.5,4-5.1,10.3-6.6,14.5c-1.5,4.2-5.4,11.7-5.7,12.7c-0.2,0.9-0.1,4.6,3.4,5.7s5.2,1.8,5.8,0.9
		c0.5-0.8,4.2-5,4.2-5L22.9,76.6z"/>
	<path opacity="0.15" d="M22.9,76.6c-2.5,4-5.1,10.3-6.6,14.5c-1.5,4.2-5.4,11.7-5.7,12.7c-0.2,0.9-0.1,4.6,3.4,5.7s5.2,1.8,5.8,0.9
		c0.5-0.8,4.2-5,4.2-5L22.9,76.6z"/>
	<path fill="#FFFFFF" d="M35.7,48.8c-2,1.6-10.2,13.3-10.6,27.7s3.2,21.1,3.2,21.1S39.2,68.4,45.2,62s5.6-11.5,5.6-11.5
		s-3.8-2.6-7.9-2.9C38.8,47.3,35.7,48.8,35.7,48.8z"/>
	<path opacity="0.2" d="M35.4,58.8l2.3,6.4l6.4-4.3l-6.8,6l-2.1-7.8L34,59l-3.8,4.3c0,0,0-4.1,0-3.8c0,0.3,0.3,1.9,0.3,1.9l3.5-3.4
		L35.4,58.8z"/>
	<path fill="#CC291F" d="M32.5,63.5l-0.1-3.8l1.5-1.6l1.5,0.7l1,2.7l-2.3,2.3c0,0-2.1,18.1-2.3,20.4c-0.1,2.2-3.1,13-3.1,13
		s-4.5-12.5-4.3-12.7S32.5,63.5,32.5,63.5z"/>
	<path fill="#FBD7C7" d="M68.7,132.1c-0.3,1-0.2,2-2,3.2c-1.7,1.3-3.1,3.6-3.5,5.2c-0.4,1.6-1.7,3.5-1.9,4.7s0.8,2,1.8,1.1
		c1-0.8,2.9-4.5,3.9-4.8c1-0.3,1.3,2.9,1.4,4c0.1,1-1.5,3-2.2,4c-0.8,1-0.1,1.9,1,1.6s5.9-2.9,7.1-7.9c1.3-5,0.7-12,0.7-12
		L68.7,132.1z"/>
	<path fill="#FFFFFF" d="M66.5,131.3l-0.1,2c0,0,3.8,0.9,6.9,0.6s3.8-1,3.8-1l-0.3-3L66.5,131.3z"/>
	<path fill="#656565" d="M39.3,48c-2.1,0.3-9.2-2-13.2,4.1s-4.7,12.6-4.9,18.3c-0.2,5.7-1.2,43-1.2,49.5s0.1,9.5,3,10.4
		c3.4,1.1,5.9-1.9,6-3.8s-0.3-30.7-0.3-30.7S23.7,83.8,27,70s8.5-18.4,8.5-18.4l4.1-3.5L39.3,48z"/>
	<path fill="#656565" d="M49.6,49.6c0,0,4,3.3,6.2,5.1c2.2,1.8,11.9,10.5,12.9,11.7c1,1.2,2.2,2.4,2.2,5.7
		c-0.1,3.2,0.4,8.4,1.7,11.9c4.1,10.6,4.3,15.2,4.6,19.8c0.3,4.6,0.9,26.6,0.9,26.6s-1.3,1.2-6.4,1.8c-5.2,0.6-6.4-0.1-6.4-0.1
		s-1.5-14.2-2.3-19.3c-1.3-7.8-5-16.1-5-16.1s-0.6,3.5-0.3,5.6s4.1,19.3,4.9,22.1s1.7,6.1,1.7,6.1s-4.2,6.6-15.6,6.1
		c-11.4-0.4-18.2-4-19.6-11c-1.4-7-1.7-24.5,0.1-34.3S39,65.7,44.2,59.9S49.6,49.6,49.6,49.6z"/>
	<path opacity="0.2" d="M29.6,95.8c0,0,3.5-8.9,8.9-16.5c3.8-5.2,7.8-8.6,7.8-8.6l-0.3-3.4l4.1-1.5l2.5-13.7l0.5,0.5l-1.7,14.1
		l-4.6,1l1,3.5c0,0-5.4,4.7-9,9.2C34.9,85.3,29.6,95.8,29.6,95.8z"/>
	<path fill="#FBD7C7" d="M33.8,27.9c-3.8,2.8-4,10.3-3.9,15.4s0.7,9.3,1.5,9.7c0.8,0.4,2.4,0.6,2.4,0.6s-0.1,4.9,1.1,5.1
		c1.2,0.3,7.8-2.8,10.9-6c3.1-3.1,3.5-3.8,3.5-3.8s4.3-7.9,3.6-14.1S44.4,20.2,33.8,27.9z"/>
	<path fill="#762C07" d="M30.6,31c-0.6,1,1.5,0.8,4.5,5.4c3.1,4.6,6.6,2.6,7.6,2.6c0.3,2.5,2.4,2.1,4.3,4.3c0,0,0.7-2.5,2.1-2.6
		s0.9,4.2,0.9,4.2s0.2,1.7,1.2,2c1,0.3,4.7-8.8,2.8-14.7C51.1,22.8,37.5,19.6,30.6,31z"/>
	<path fill="#FFFFFF" d="M11.5,104.2c0.5-0.5,3.6-0.4,5.3,1.3c1.7,1.7,2.2,3.6,1.9,4.1c-0.2,0.4-2.4,0.2-4.9-1.5
		S10.9,104.8,11.5,104.2z"/>
	<path fill="#FBD7C7" d="M12,104.6c1.2-0.4,3.1,0.1,4.3,1.3c1.2,1.1,1.7,2.2,1.6,3c0,0.8-1,2.7-1.2,3.6c-0.2,0.8-2.7,4.2-3.5,5.3
		c-0.7,1.2-1.6,1.7-1.8,3.5s-0.8,2.7-2.1,2.8c-1.3,0.1-6.1-2.9-5.2-7.2c0.9-4.2,2.6-6.7,3.6-8.1c0.5-0.7,2.6-1.8,3.3-2.3
		C11.8,105.9,11.6,104.8,12,104.6z"/>
</g>
</svg>
